<svg width="60" height="30" viewBox="0 0 60 30" fill="none" xmlns="http://www.w3.org/2000/svg">
<mask id="mask0_807_128" style="mask-type:luminance" maskUnits="userSpaceOnUse" x="0" y="0" width="60" height="30">
<path d="M59.1336 0H0V30H59.1336V0Z" fill="white"/>
</mask>
<g mask="url(#mask0_807_128)">
<path d="M42.7588 13.5769C42.5732 13.2864 42.4552 12.9581 42.4133 12.6159C42.3953 12.4887 42.3792 12.3607 42.3707 12.2323C42.3556 12.0075 42.4074 11.7898 42.4574 11.5731C42.5544 11.1521 42.6174 10.7302 42.5407 10.2972C42.4435 9.68405 42.1756 9.1107 41.7675 8.64293C41.5769 8.42763 41.3446 8.2616 41.1116 8.09719C40.8479 7.91135 40.5992 7.71207 40.4417 7.42149C40.4305 7.40102 40.4131 7.38423 40.4002 7.36474C40.2541 7.14239 40.1138 6.91734 40.061 6.65059C40.0434 6.56254 40.0271 6.47427 40.0065 6.38687C39.9486 6.14026 39.907 5.88792 39.8257 5.649C39.6546 5.14561 39.3363 4.73741 38.9431 4.38586C38.5742 4.05023 38.1231 3.81813 37.6356 3.71319C37.4983 3.68362 37.3614 3.652 37.2251 3.61831C37.0217 3.57727 36.8275 3.49983 36.6517 3.3899C36.5326 3.30867 36.4154 3.2242 36.2932 3.14763C36.1033 3.02297 35.9412 2.86019 35.8173 2.66958C35.7222 2.53127 35.6291 2.39156 35.5349 2.2525C35.3442 1.96528 35.1004 1.71727 34.8164 1.52178C34.27 1.15106 33.671 0.933584 33.0066 0.934126C32.7885 0.944414 32.5713 0.969108 32.3563 1.00799C32.19 1.03019 32.0251 1.06192 31.8588 1.08597C31.638 1.11705 31.4237 1.06431 31.2085 1.02792C30.8979 0.985136 30.6014 0.871201 30.3421 0.694884C30.247 0.626761 30.1481 0.563079 30.0476 0.503079C29.9104 0.421093 29.7739 0.335967 29.6302 0.266869C29.2314 0.0830786 28.796 -0.00800439 28.357 0.000551573C27.7995 -0.000314853 27.2722 0.118819 26.7942 0.417519C26.6717 0.494089 26.5522 0.575534 26.4292 0.651237C26.3093 0.724884 26.1875 0.794523 26.0658 0.864703C25.9219 0.947122 25.7525 0.972898 25.5905 0.93705C25.3991 0.899685 25.207 0.865136 25.0177 0.818566C24.5708 0.698349 24.1016 0.686978 23.6495 0.785533C23.0153 0.932718 22.449 1.20575 22.0055 1.69474C21.8721 1.84192 21.7582 2.00644 21.6336 2.16185C21.5334 2.28662 21.4314 2.40976 21.329 2.53257C21.2517 2.62766 21.1417 2.69048 21.0206 2.70857C20.8243 2.73987 20.6287 2.78048 20.431 2.79889C19.8474 2.84687 19.2904 3.06423 18.8283 3.42423C18.2912 3.84163 17.906 4.36192 17.7244 5.0242C17.6893 5.1521 17.6494 5.2786 17.6079 5.40467C17.4555 5.89528 17.1187 6.3077 16.6683 6.55474C16.5014 6.64831 16.3342 6.74124 16.1696 6.8386C15.969 6.95319 15.7866 7.09691 15.6284 7.2651C14.9398 8.019 14.62 8.89301 14.7617 9.92015C14.7942 10.1555 14.8217 10.3954 14.7699 10.6316C14.73 10.8141 14.6712 10.9924 14.6251 11.1737C14.5708 11.378 14.4765 11.5695 14.3475 11.7371C14.2259 11.8995 14.1003 12.0591 13.9778 12.2211C13.7762 12.4813 13.6283 12.7789 13.5424 13.0967C13.4902 13.2885 13.452 13.4839 13.428 13.6813C13.3655 14.2553 13.4322 14.8118 13.6974 15.3336C13.7822 15.5007 13.8724 15.665 13.9597 15.8307C14.0419 15.9865 14.1286 16.1447 14.1486 16.3199C14.1738 16.5439 14.2598 16.7574 14.2478 16.9879C14.2427 17.0879 14.2717 17.1891 14.2767 17.2903C14.2882 17.5196 14.2299 17.7394 14.1752 17.9592C14.097 18.2738 14.0152 18.5877 14.0106 18.9171C14.0306 19.0914 14.0401 19.2676 14.0726 19.4395C14.1717 20.0164 14.428 20.5547 14.8131 20.9954C15.001 21.2072 15.2279 21.3742 15.4519 21.5441C15.6918 21.7193 15.8957 21.9391 16.0524 22.1913C16.216 22.4534 16.3229 22.7467 16.3664 23.0525C16.4067 23.3501 16.4354 23.6526 16.545 23.9343C16.9291 24.9215 17.6065 25.6014 18.6389 25.9011C18.8487 25.962 19.0604 26.0169 19.2672 26.0869C19.5525 26.1802 19.7957 26.3707 19.9547 26.6252C20.0505 26.7768 20.1449 26.9302 20.23 27.0881C20.5033 27.6022 20.9229 28.0235 21.4359 28.2988C21.8666 28.5341 22.3211 28.6938 22.8168 28.6967C23.0464 28.698 23.2765 28.6719 23.5061 28.6547C23.7239 28.6382 23.9414 28.602 24.1594 28.6446C24.2742 28.667 24.3878 28.6953 24.5011 28.724C24.7862 28.7964 25.0631 28.8873 25.2985 29.0743C25.4055 29.1594 25.5182 29.237 25.6251 29.3221C26.0573 29.6694 26.58 29.8848 27.1313 29.9427C27.7466 30.0117 28.3393 29.9446 28.8934 29.6487C29.0621 29.5588 29.229 29.4647 29.3973 29.3745C29.5563 29.2819 29.7299 29.2173 29.9108 29.1836C30.1075 29.1539 30.3046 29.1274 30.5022 29.1042C30.5718 29.0938 30.6424 29.0936 30.712 29.1037C30.942 29.1457 31.173 29.1858 31.399 29.2445C31.8396 29.3587 32.2819 29.4034 32.7319 29.315C33.5446 29.1552 34.2259 28.7798 34.719 28.0977C34.7419 28.0661 34.7674 28.0364 34.7909 28.0051C34.981 27.7371 35.2227 27.51 35.5021 27.337C35.8178 27.1472 36.1391 26.997 36.5086 26.9516C36.7334 26.9247 36.9561 26.8838 37.1758 26.829C38.0417 26.61 38.9902 25.7787 39.263 24.812C39.2938 24.7031 39.3263 24.5946 39.3539 24.4849C39.4372 24.1538 39.5502 23.841 39.7581 23.5591C39.9692 23.2724 40.1924 23.0085 40.5058 22.831C40.6008 22.7771 40.6926 22.7175 40.785 22.6591C40.976 22.5443 41.1537 22.4086 41.3144 22.2543C41.6896 21.8749 41.9655 21.4087 42.1174 20.8971C42.2304 20.559 42.271 20.2008 42.2366 19.8459C42.2106 19.6211 42.1791 19.3969 42.1527 19.1722C42.1226 18.9748 42.1274 18.7737 42.1664 18.578C42.2006 18.43 42.2383 18.2828 42.2705 18.1345C42.3043 17.9736 42.3672 17.8202 42.4563 17.682C42.5539 17.5314 42.6551 17.383 42.7596 17.2368C42.9912 16.926 43.1595 16.5727 43.2548 16.1969C43.3117 15.9575 43.3426 15.7125 43.3468 15.4665C43.355 14.9832 43.2775 14.5168 43.052 14.0839C42.9629 13.91 42.8651 13.7408 42.7588 13.5769ZM42.4633 15.6567C42.4285 16.052 42.2824 16.4293 42.0418 16.7449C41.912 16.9204 41.7929 17.1046 41.677 17.2895C41.5649 17.4731 41.4827 17.6735 41.4334 17.8828C41.4165 17.9505 41.3892 18.0155 41.3664 18.0816C41.3596 18.0955 41.3541 18.11 41.3498 18.125C41.3244 18.2903 41.3007 18.4557 41.2755 18.6209C41.2492 18.8501 41.2542 19.0817 41.29 19.3096C41.3174 19.5421 41.3542 19.7739 41.3717 20.007C41.4141 20.5742 41.0503 21.4589 40.4296 21.8507C40.2744 21.9487 40.1187 22.0457 39.9638 22.1444C39.6749 22.3178 39.4239 22.5479 39.2262 22.8208C39.2066 22.8492 39.1766 22.8703 39.1549 22.8977C39.1218 22.9397 39.0906 22.9833 39.061 23.0279C39.0396 23.06 39.0261 23.0982 39.0025 23.1284C38.8194 23.3681 38.6842 23.6408 38.6045 23.9316C38.5574 24.0926 38.5098 24.2537 38.4708 24.417C38.3302 25.0063 37.9664 25.4276 37.4745 25.7539C37.2227 25.9126 36.9391 26.0143 36.6439 26.0519C36.3935 26.0912 36.1418 26.1299 35.8972 26.1938C35.7266 26.2483 35.56 26.3148 35.3988 26.3929C35.3202 26.426 35.244 26.4648 35.1669 26.5014C35.1491 26.5093 35.132 26.5187 35.116 26.5295C35.0241 26.5947 34.9348 26.6637 34.8411 26.7259C34.6213 26.8758 34.4264 27.0593 34.2633 27.2695C34.1706 27.3854 34.0763 27.5002 33.9887 27.6198C33.6998 28.0148 33.3063 28.2535 32.845 28.392C32.6384 28.4554 32.4239 28.4885 32.2078 28.4902C32.0174 28.4853 31.8283 28.4571 31.6448 28.4062C31.3937 28.3499 31.1439 28.2817 30.8896 28.2464C30.7102 28.2216 30.5243 28.2425 30.3414 28.2443C30.3103 28.2443 30.2795 28.2532 30.2484 28.2542C30.1902 28.2484 30.1316 28.2496 30.0738 28.2576C29.8011 28.3361 29.5095 28.3445 29.2519 28.4787C29.0789 28.5686 28.9043 28.6559 28.7324 28.7483C28.5227 28.8612 28.3177 28.9863 28.0809 29.0346C27.3994 29.1737 26.7609 29.0909 26.1917 28.6595C26.0238 28.5322 25.8555 28.4047 25.6829 28.2837C25.4714 28.1351 25.2358 28.0246 24.9865 27.957C24.9347 27.9405 24.8838 27.9213 24.8341 27.8995C24.8133 27.8889 24.7917 27.88 24.7694 27.8731C24.6052 27.8412 24.4411 27.8087 24.2761 27.7809C24.0476 27.7485 23.8159 27.7459 23.5869 27.7732C23.3925 27.7912 23.1985 27.8138 23.0038 27.8263C22.5584 27.855 22.1572 27.7144 21.7798 27.4926C21.476 27.3191 21.2242 27.0676 21.0505 26.764C20.9522 26.5909 20.8516 26.4191 20.7491 26.2486C20.4466 25.7335 19.954 25.3578 19.3773 25.2022C19.2198 25.1569 19.0627 25.1099 18.9038 25.0704C18.255 24.9081 17.8106 24.4941 17.4879 23.9281C17.3393 23.6674 17.2943 23.3781 17.2523 23.0879C17.2119 22.8096 17.1783 22.5284 17.067 22.2679C16.853 21.7673 16.5725 21.3119 16.1325 20.9729C16.0118 20.88 15.8946 20.7824 15.7717 20.6926C15.3338 20.3731 15.0868 19.9326 14.9573 19.417C14.8742 19.0821 14.8764 18.7315 14.9635 18.3975C15.0307 18.1488 15.0849 17.897 15.126 17.6428C15.1472 17.4529 15.1491 17.2613 15.1313 17.071C15.1276 17.0145 15.1139 16.8198 15.0921 16.6461C15.0768 16.5239 15.0636 16.4035 15.0481 16.3033C15.0129 15.9551 14.8624 15.668 14.6987 15.3637C14.6156 15.2091 14.5323 15.0543 14.4553 14.8963C14.3084 14.579 14.2496 14.2281 14.285 13.8804C14.297 13.7286 14.3201 13.578 14.3539 13.4297C14.4117 13.1734 14.5256 12.933 14.687 12.726C14.8154 12.5586 14.9457 12.3927 15.0703 12.2225C15.2399 11.9835 15.3716 11.7198 15.4605 11.4407C15.5119 11.2894 15.5394 11.1346 15.5848 10.9834C15.6819 10.6596 15.6747 10.3279 15.6465 9.99575C15.6349 9.85961 15.6226 9.72358 15.6102 9.58745C15.5654 9.0873 15.7134 8.63893 15.9781 8.22261C16.1509 7.94167 16.3924 7.70936 16.6798 7.54766C16.8677 7.44369 17.0547 7.33788 17.2389 7.22774C17.4885 7.07384 17.7103 6.87878 17.8952 6.65124C18.1747 6.3181 18.3779 5.92788 18.4907 5.50799C18.5251 5.38398 18.5686 5.26225 18.6036 5.13857C18.7853 4.49167 19.5728 3.75088 20.4139 3.68167C20.6275 3.66402 20.8394 3.62405 21.0518 3.59492C21.2521 3.57023 21.4455 3.50589 21.6206 3.40582C21.7959 3.30575 21.9494 3.17189 22.0725 3.01192C22.1939 2.85911 22.3192 2.70867 22.4298 2.54817C22.8141 1.99084 23.3605 1.70914 24.0133 1.60799C24.3039 1.56283 24.5876 1.61611 24.8713 1.67904C25.1111 1.73221 25.3532 1.77499 25.5958 1.81279C25.9269 1.86445 26.232 1.77283 26.517 1.61265C26.7141 1.50185 26.9075 1.38293 27.0943 1.25535C27.6948 0.844884 28.3454 0.787266 29.0319 0.9677C29.1971 1.01622 29.3539 1.08954 29.4971 1.18506C29.6825 1.30095 29.8644 1.42246 30.0511 1.53629C30.2944 1.67709 30.5575 1.78052 30.8316 1.8429C30.9831 1.88145 31.1359 1.89543 31.2871 1.92737C31.6463 2.00362 32.0018 1.95889 32.3568 1.89467C32.5872 1.85265 32.817 1.79427 33.0527 1.80867C33.7446 1.85102 34.3313 2.11062 34.7616 2.67098C34.8874 2.83485 34.996 3.01203 35.1138 3.18218C35.2956 3.44135 35.5191 3.66878 35.7749 3.85528C35.9094 3.95535 36.0542 4.03506 36.1909 4.12875C36.459 4.31319 36.7649 4.40795 37.0783 4.48073C37.1887 4.50629 37.2989 4.53196 37.4096 4.55524C38.0455 4.68878 38.4997 5.07066 38.8446 5.60254C39.0033 5.84719 39.0678 6.12337 39.1249 6.40398C39.1683 6.64182 39.224 6.87727 39.2918 7.10925C39.3539 7.27311 39.4273 7.43243 39.5117 7.586C39.5416 7.64914 39.5752 7.71055 39.6075 7.77272C39.6167 7.79394 39.6278 7.81431 39.6404 7.83369C39.7037 7.91709 39.7722 7.99669 39.8322 8.08246C40.0052 8.31965 40.2157 8.52683 40.4555 8.696C40.5622 8.77506 40.6687 8.85456 40.7781 8.92983C41.2326 9.24196 41.4874 9.68611 41.6324 10.206C41.7373 10.5823 41.7081 10.9543 41.6203 11.3289C41.5725 11.5338 41.5396 11.7424 41.5072 11.9504C41.4783 12.1558 41.4851 12.3646 41.527 12.5677C41.5309 12.5788 41.533 12.5904 41.5334 12.6021C41.5094 12.7748 41.5925 12.9289 41.6191 13.0928C41.6674 13.3898 41.7968 13.6572 41.9487 13.9139C42.0343 14.0584 42.1208 14.2022 42.2069 14.3464C42.4491 14.7521 42.5028 15.1957 42.4633 15.6567Z" fill="white"/>
<path d="M36.4785 14.9868C36.4761 10.5074 32.8401 6.89673 28.4113 6.878C23.9 6.85915 20.277 10.5378 20.2695 14.9706C20.2622 19.4033 23.8694 23.0893 28.3719 23.0911C32.8383 23.0929 36.4782 19.4536 36.4785 14.9868ZM28.3539 22.4359C24.224 22.4262 20.9196 19.0562 20.925 14.9791C20.928 13.0043 21.7143 11.1113 23.1111 9.71533C24.508 8.31919 26.4014 7.53421 28.3764 7.53226C32.5466 7.5393 35.8297 10.9464 35.8238 14.9959C35.818 19.0367 32.5333 22.4457 28.3539 22.4359Z" fill="white"/>
<path d="M36.9157 9.9819L36.5078 10.1236C36.5218 10.171 36.5303 10.2046 36.5415 10.2375C36.6047 10.422 36.6717 10.6053 36.7307 10.7912C36.7387 10.8228 36.756 10.8511 36.7802 10.873C36.8043 10.8948 36.8344 10.909 36.8666 10.9138C37.4528 11.0624 38.0377 11.2157 38.6226 11.3677C38.6623 11.3779 38.7013 11.3904 38.7406 11.4018C38.7411 11.4107 38.7417 11.4197 38.7422 11.4287C38.5489 11.4965 38.3563 11.5666 38.1619 11.6316C37.9642 11.6974 37.7706 11.7781 37.5646 11.8298L37.4867 11.6369L37.0754 11.7817L37.4119 12.7503L37.8249 12.6065L37.7409 12.3428C38.2582 12.1601 38.7679 11.9832 39.2822 11.8084C39.319 11.9027 39.3497 11.981 39.3835 12.0672L39.7944 11.9247C39.7829 11.884 39.7752 11.8503 39.7641 11.818C39.7005 11.6335 39.6305 11.451 39.5743 11.2644C39.5653 11.2274 39.5452 11.1939 39.5167 11.1685C39.4882 11.143 39.4527 11.1269 39.4149 11.1221C38.82 10.9762 38.2263 10.8258 37.6321 10.6764C37.5986 10.6681 37.5657 10.6568 37.5326 10.6469L37.5309 10.6193L38.7241 10.2057C38.7534 10.2734 38.7776 10.3294 38.8057 10.3945L39.2176 10.2518L38.8865 9.29883L38.4747 9.44233C38.5008 9.53135 38.5232 9.60825 38.5483 9.69403L37.0081 10.2274L36.9157 9.9819Z" fill="white"/>
<path d="M35.0269 7.46661L34.6875 7.73249C34.7091 7.76379 34.7251 7.78989 34.7439 7.81394C34.8684 7.97423 34.9971 8.13159 35.1167 8.29535C35.1341 8.32285 35.1594 8.34441 35.1894 8.3573C35.2193 8.37007 35.2525 8.37365 35.2844 8.36726C35.4669 8.34928 35.6501 8.33737 35.8329 8.32329C36.1908 8.29535 36.5488 8.2674 36.9066 8.23946C37.0094 8.23156 37.1126 8.2269 37.2156 8.22072L37.226 8.24639L36.2448 9.01231C36.1921 8.95166 36.1497 8.90271 36.1029 8.84888L35.7604 9.11683L36.3924 9.92715L36.7359 9.65856L36.5718 9.43318C37.003 9.09527 37.4268 8.76137 37.8585 8.43018L38.0358 8.64452L38.3774 8.37668C38.3539 8.34181 38.3381 8.3156 38.3195 8.29166C38.1928 8.12813 38.0641 7.96621 37.9394 7.80116C37.9238 7.77722 37.9014 7.75827 37.875 7.7469C37.8487 7.73553 37.8197 7.73217 37.7915 7.73726C37.2241 7.78795 36.6563 7.83408 36.0885 7.88109C36.0006 7.88834 35.9125 7.89202 35.8248 7.89733C35.8205 7.88932 35.8163 7.8813 35.8122 7.87329C36.144 7.61455 36.4741 7.35332 36.8123 7.09448L36.9484 7.2473L37.2918 6.97957C37.0839 6.71304 36.8807 6.45289 36.6709 6.18408L36.3254 6.45311C36.3825 6.53109 36.4298 6.59596 36.4812 6.66592L35.1942 7.66989L35.0269 7.46661Z" fill="white"/>
<path d="M17.4706 11.8303C17.9931 12.0097 18.506 12.178 19.0169 12.3596L18.9402 12.6077L19.3537 12.7475C19.4697 12.4068 19.5821 12.0763 19.6982 11.7358C19.555 11.6873 19.4235 11.6425 19.2855 11.5956C19.2517 11.6826 19.2214 11.7606 19.1885 11.8454L17.6422 11.319C17.7526 10.9762 17.8653 10.6468 17.9835 10.3128L19.5332 10.8402C19.506 10.9275 19.4822 11.004 19.4546 11.0922L19.8698 11.2334C19.9863 10.8893 20.0983 10.5586 20.2127 10.2206L19.7991 10.0798L19.7066 10.3311L18.1575 9.80367C18.1859 9.71183 18.2096 9.63515 18.2366 9.54764L17.8235 9.40869C17.5365 10.2529 17.2522 11.0892 16.9648 11.9347L17.3763 12.0749C17.4096 11.9886 17.4386 11.9137 17.4706 11.8303Z" fill="white"/>
<path d="M28.7801 5.34448C28.9709 5.3565 29.1618 5.37274 29.3528 5.3748C29.5263 5.37783 29.6955 5.31935 29.83 5.20964C29.9646 5.09993 30.0558 4.94614 30.0877 4.77545C30.1336 4.55007 30.095 4.34841 29.9123 4.1904C29.9012 4.1787 29.8919 4.16549 29.8845 4.1513C29.9436 4.09736 29.9984 4.03888 30.0485 3.9765C30.162 3.81112 30.1689 3.62332 30.1256 3.43639C30.0482 3.10152 29.7811 2.88209 29.4193 2.85307C29.0576 2.82404 28.6955 2.80227 28.3335 2.77823C28.2916 2.77541 28.2496 2.7778 28.2017 2.7778C28.1801 2.92022 28.172 3.06437 28.1774 3.2083L28.423 3.24177C28.3888 3.78957 28.3565 4.32448 28.3129 4.86415H28.0564C28.0479 5.00798 28.0396 5.14585 28.0312 5.28837C28.0694 5.29336 28.0918 5.29758 28.1145 5.2992C28.3364 5.31458 28.5582 5.33061 28.7801 5.34448ZM28.9669 3.27144C29.1119 3.28054 29.2443 3.28087 29.3745 3.29906C29.535 3.32159 29.6318 3.52856 29.5695 3.69697C29.5537 3.75393 29.5182 3.80343 29.4692 3.83657C29.4204 3.86982 29.3613 3.88455 29.3025 3.87827C29.1936 3.87361 29.0848 3.86365 28.976 3.85541C28.9592 3.85184 28.9425 3.84686 28.9265 3.84058C28.9398 3.6505 28.9529 3.46563 28.9669 3.27144ZM28.8979 4.29783C29.0563 4.30801 29.1954 4.31614 29.3344 4.32664C29.3576 4.32946 29.38 4.3365 29.4008 4.34744C29.5132 4.40105 29.5692 4.54823 29.5366 4.70159C29.5281 4.76592 29.4963 4.82484 29.447 4.86707C29.3978 4.90931 29.3347 4.93195 29.2698 4.93043C29.1456 4.92621 29.0218 4.91408 28.8978 4.90444C28.8835 4.90011 28.87 4.89393 28.8574 4.88603C28.8705 4.6965 28.8837 4.50448 28.8979 4.29783Z" fill="white"/>
<path d="M32.7809 5.88923C32.6935 6.00912 32.6123 6.12468 32.5352 6.25031L33.412 6.8527L33.6583 6.49259L33.444 6.33349L33.9345 5.61988C33.9501 5.67165 33.9598 5.69613 33.9645 5.72179C34.0225 6.03241 34.0766 6.34378 34.1393 6.65342C34.149 6.69078 34.1499 6.72988 34.1418 6.76757C34.1336 6.80526 34.1168 6.84046 34.0926 6.87057C34.0201 6.96598 33.9561 7.06779 33.8824 7.1762L34.5605 7.64179C34.6533 7.50652 34.7403 7.37959 34.8284 7.25114C34.8053 7.22927 34.7799 7.20977 34.7528 7.1932C34.7215 7.17717 34.6952 7.15313 34.6765 7.12356C34.6577 7.094 34.6472 7.05988 34.6461 7.02479C34.5922 6.71353 34.5349 6.4027 34.48 6.09154C34.4761 6.05721 34.4744 6.02266 34.4749 5.988C34.5309 5.97901 34.5764 5.9697 34.6225 5.96472C34.8708 5.93775 35.12 5.91544 35.3674 5.88446C35.4971 5.86822 35.6242 5.84255 35.731 5.96883L36.0037 5.57093L35.3065 5.09255C35.2249 5.20984 35.1495 5.31392 35.0796 5.42158C35.0659 5.44475 35.0468 5.46414 35.0237 5.478C35.0007 5.49187 34.9745 5.49977 34.9477 5.50085C34.6451 5.53345 34.3432 5.5719 34.0409 5.60721C34.0092 5.60797 33.9775 5.60645 33.9458 5.60298L34.3667 4.98956L34.5935 5.13132L34.8408 4.77165L33.9592 4.16699L33.7131 4.52764L33.9157 4.67981C33.7999 4.89295 33.0515 5.96493 32.9808 6.01887L32.7809 5.88923Z" fill="white"/>
<path d="M18.85 8.65131L20.1512 9.55596L20.0066 9.77907L20.3648 10.0282L21.5072 8.38293L20.7751 7.87455L20.4755 8.30647C20.6008 8.39484 20.7174 8.47715 20.8437 8.5664C20.7138 8.75289 20.5901 8.93029 20.4611 9.11582L19.9661 8.77055L20.2478 8.35325L19.8684 8.09019C19.7693 8.22968 19.6752 8.3617 19.5764 8.50087L19.1531 8.20607C19.285 8.01513 19.4041 7.83513 19.5359 7.65925C19.6423 7.73029 19.7349 7.79224 19.8327 7.85755L20.1303 7.42553L19.4344 6.94336L18.293 8.58773L18.6883 8.86293L18.85 8.65131Z" fill="white"/>
<path d="M26.3503 5.56074C26.7852 5.56237 27.1114 5.41378 27.3336 5.15201C27.8208 4.57887 27.7265 3.67713 27.1303 3.20764C26.9002 3.02071 26.6077 2.92854 26.312 2.94977C26.0165 2.971 25.7401 3.10399 25.5392 3.3219C25.1634 3.71742 25.0846 4.36475 25.3572 4.87128C25.5878 5.29962 25.9454 5.53659 26.3503 5.56074ZM25.8528 3.77168C25.8953 3.69338 25.9546 3.62547 26.0264 3.57284C26.0982 3.5202 26.1809 3.48414 26.2684 3.46724C26.3559 3.45046 26.4459 3.45316 26.5322 3.47526C26.6185 3.49746 26.6988 3.53851 26.7673 3.59536C26.9231 3.72999 27.0304 3.91215 27.0727 4.1136C27.1151 4.31515 27.0901 4.52493 27.0018 4.711C26.9597 4.79721 26.8976 4.87226 26.8209 4.92999C26.7442 4.9876 26.6548 5.02616 26.5601 5.04262C26.4656 5.05897 26.3684 5.05269 26.2768 5.02421C26.1851 4.99573 26.1015 4.94591 26.0328 4.87876C25.941 4.79103 25.8683 4.68533 25.8194 4.56814C25.7703 4.45107 25.746 4.325 25.7481 4.19807C25.7446 4.04916 25.7807 3.90197 25.8528 3.77168Z" fill="white"/>
<path d="M30.9607 5.68699C31.1715 5.84566 31.4304 5.92699 31.6941 5.91714C31.9578 5.90739 32.2099 5.80699 32.4082 5.63306C32.4556 5.59028 32.4945 5.53829 32.5433 5.48403L32.0998 5.1836C32.0646 5.21306 32.0414 5.23375 32.0168 5.25281C31.6542 5.53559 31.1773 5.38299 31.0446 4.94198C31.0011 4.79923 30.9966 4.6475 31.0313 4.50248C31.096 4.22642 31.2394 4.00624 31.5015 3.88115C31.7897 3.7436 32.1631 3.85245 32.2746 4.12819C32.2969 4.191 32.3356 4.24656 32.3869 4.28912C32.4381 4.33169 32.4999 4.35963 32.5657 4.36992C32.5921 4.3762 32.6172 4.38768 32.6435 4.39559C32.7017 4.41313 32.76 4.43014 32.8259 4.44952C32.8846 4.27212 32.9393 4.10728 32.996 3.93595C32.9073 3.90595 32.831 3.87681 32.7528 3.8544C32.719 3.84616 32.6873 3.83111 32.6596 3.8101C32.6319 3.78909 32.6088 3.76255 32.5917 3.73234C32.5256 3.61613 32.4279 3.52115 32.31 3.45833C32.1578 3.37288 31.9885 3.32284 31.8144 3.3119C31.6403 3.30086 31.466 3.32912 31.3044 3.39465C30.7826 3.59837 30.4416 4.13988 30.4661 4.72223C30.4826 5.11894 30.6392 5.44743 30.9607 5.68699Z" fill="white"/>
<path d="M22.0226 7.78311C22.5517 7.67145 22.9899 7.14531 22.9204 6.54239C22.9161 6.44394 22.8868 6.3482 22.8354 6.26405L22.36 6.48704C22.3673 6.52906 22.3721 6.55581 22.3763 6.58267C22.3947 6.67711 22.3899 6.7747 22.3623 6.86697C22.3347 6.95924 22.2851 7.0434 22.2178 7.11217C22.1505 7.18105 22.0675 7.23249 21.9759 7.26217C21.8844 7.29184 21.7869 7.29888 21.692 7.28264C21.277 7.22643 20.9265 6.81986 20.9309 6.40062C20.9348 6.03 21.2474 5.72935 21.6171 5.79953C21.6541 5.80852 21.6928 5.80733 21.7292 5.79618C21.7654 5.78502 21.7983 5.76423 21.8237 5.73607C21.8918 5.67184 21.9657 5.61401 22.036 5.55217C22.0584 5.53235 22.0775 5.50874 22.1014 5.4834L21.7503 5.07812C21.672 5.14452 21.6029 5.20105 21.5364 5.26051C21.4992 5.29484 21.4507 5.31412 21.4001 5.31444C21.2708 5.3126 21.1428 5.34163 21.0269 5.39924C20.8175 5.50831 20.6471 5.67986 20.5396 5.89007C20.3057 6.36715 20.3588 6.82809 20.6694 7.24657C21.0043 7.69798 21.4598 7.90159 22.0226 7.78311Z" fill="white"/>
<path d="M23.0709 4.91535L22.9347 4.6174L23.2251 4.47628C23.4683 4.97665 23.7061 5.46596 23.947 5.96177L23.7151 6.08643C23.7827 6.22094 23.8391 6.35091 23.9108 6.47578C24.0826 6.39184 24.2412 6.31668 24.3981 6.23816C24.5531 6.16051 24.7148 6.09531 24.8656 6.00314L24.6747 5.6165L24.4326 5.72773L23.7085 4.23834L24.0385 4.08195L24.1872 4.3722L24.6609 4.14065L24.3309 3.46289L22.2695 4.46654L22.6001 5.14419L23.0709 4.91535Z" fill="white"/>
<path d="M29.8795 25.517L30.1355 25.4971V25.1138C30.089 25.1138 30.0586 25.1127 30.0281 25.1138C29.8644 25.1206 29.7006 25.1323 29.537 25.1335C29.5044 25.1317 29.472 25.1389 29.4431 25.1543C29.4144 25.1697 29.3903 25.1928 29.3739 25.2209C29.224 25.44 29.0695 25.6556 28.916 25.872C28.8969 25.8989 28.8737 25.923 28.8483 25.9533C28.8234 25.9266 28.8068 25.9103 28.7917 25.8926C28.6123 25.6815 28.4321 25.4711 28.2549 25.2581C28.2404 25.2377 28.2208 25.2216 28.198 25.2112C28.1753 25.2009 28.1503 25.1967 28.1254 25.1992C28.0046 25.2061 27.8834 25.2056 27.7626 25.2114C27.6827 25.2153 27.603 25.2245 27.5244 25.2312C27.5244 25.3091 27.5217 25.3715 27.5252 25.4335C27.5286 25.4938 27.5385 25.5537 27.5455 25.614H27.7891C27.7991 25.8603 27.8088 26.0995 27.8188 26.3429L27.5641 26.3645C27.5711 26.4966 27.5773 26.6186 27.5842 26.7506L28.4447 26.7119V26.334L28.2669 26.3181C28.2592 26.1677 28.2519 26.0236 28.2444 25.8793L28.2728 25.8685L28.8781 26.5577C28.9761 26.4235 29.0649 26.3012 29.1543 26.1795C29.2427 26.0592 29.3263 25.9349 29.4206 25.819L29.4467 25.8293C29.4529 25.9749 29.4593 26.1206 29.4658 26.2699L29.301 26.2907C29.3085 26.4189 29.3156 26.541 29.3233 26.6747L30.1804 26.6356V26.2449H29.9107C29.9003 25.9985 29.8902 25.7624 29.8795 25.517Z" fill="white"/>
<path d="M30.8891 24.9164C30.8711 24.9334 30.8512 24.9482 30.8244 24.9708C30.8069 24.9188 30.8042 24.863 30.8166 24.8096C30.829 24.7562 30.856 24.7074 30.8945 24.6685C30.9808 24.5773 31.0897 24.5104 31.21 24.4744C31.3395 24.4315 31.4706 24.3932 31.6006 24.352C31.6513 24.3359 31.7012 24.3174 31.7551 24.2987C31.7127 24.1497 31.6736 24.0116 31.6292 23.856C31.5067 23.8899 31.3982 23.9195 31.2903 23.9507C31.2831 23.9525 31.2764 23.9556 31.2705 23.96C31.2647 23.9644 31.2597 23.9699 31.2559 23.9762C31.2679 24.061 31.1951 24.0566 31.1503 24.0734C31.0021 24.123 30.8626 24.1954 30.7368 24.2881C30.4835 24.4884 30.3596 24.749 30.4224 25.0692C30.4761 25.3246 30.544 25.5766 30.6258 25.8244C30.6593 25.92 30.7114 26.008 30.7791 26.0834C31.0975 26.4512 31.6439 26.3673 31.9278 26.1085C32.1949 25.8651 32.2569 25.4954 32.0917 25.1422C32.0435 25.0315 31.969 24.9343 31.8745 24.8591C31.7802 24.7838 31.6688 24.7329 31.5502 24.7106C31.4316 24.6883 31.3093 24.6955 31.1941 24.7313C31.0788 24.7673 30.9742 24.8307 30.8891 24.9164ZM31.3909 25.9281C31.1751 25.9336 30.9799 25.7334 30.9786 25.5054C30.9795 25.4012 31.0209 25.3015 31.0939 25.2272C31.1668 25.1529 31.2657 25.1098 31.3697 25.1069C31.5806 25.1064 31.7452 25.2967 31.7473 25.5434C31.7496 25.5921 31.7421 25.6408 31.7253 25.6868C31.7085 25.7326 31.6829 25.7746 31.6496 25.8103C31.6165 25.8462 31.5765 25.875 31.532 25.8951C31.4875 25.9154 31.4396 25.9266 31.3909 25.9281Z" fill="white"/>
<path d="M36.2524 23.1499L35.7809 22.5881L35.9395 22.4384L35.6924 22.1455L35.0218 22.7105L35.2699 23.0042L35.4396 22.8744L35.5632 23.0231L35.0505 23.4546C35.0069 23.4006 34.9692 23.3541 34.9246 23.2987L35.0798 23.1665C34.9936 23.0636 34.915 22.9698 34.8315 22.8702L34.1602 23.4351C34.2463 23.5376 34.3254 23.6319 34.4074 23.7292L34.5875 23.5924L35.06 24.1555L34.8949 24.3093C34.9804 24.4111 35.0577 24.5028 35.1416 24.6027L35.8128 24.0377C35.7249 23.9334 35.6459 23.8399 35.5646 23.7432C35.5042 23.7899 35.4558 23.8271 35.3996 23.8706L35.2425 23.6804L35.7564 23.2486L35.9115 23.4393L35.7566 23.5838L36.0039 23.8775L36.6735 23.3125L36.4278 23.0193L36.2524 23.1499Z" fill="white"/>
<path d="M34.2795 24.6778C34.1671 24.4596 34.0573 24.2469 33.9461 24.0313L34.101 23.9347L33.9221 23.5942C33.774 23.6708 33.6379 23.7459 33.4974 23.8115C33.4654 23.8244 33.4375 23.8458 33.4168 23.8734C33.396 23.9009 33.3831 23.9336 33.3795 23.9679C33.3209 24.2981 33.2569 24.6272 33.1941 24.9565C33.1852 24.9892 33.1747 25.0214 33.1624 25.053L32.9104 24.5653L33.0637 24.4678C33.005 24.3544 32.9487 24.246 32.888 24.1287C32.6418 24.2566 32.4077 24.3781 32.1641 24.5045L32.3407 24.8436L32.5166 24.7693L32.8522 25.4187L32.6944 25.5176C32.7516 25.6383 32.8069 25.7473 32.8717 25.8555C33.0195 25.7791 33.1523 25.7042 33.2906 25.6418C33.3261 25.6274 33.3571 25.6035 33.3801 25.5728C33.4031 25.542 33.4172 25.5056 33.4209 25.4674C33.4802 25.1454 33.5452 24.8244 33.6089 24.5032C33.6181 24.4723 33.6292 24.4421 33.6423 24.4127C33.731 24.5825 33.8136 24.7293 33.8832 24.8844L33.7241 24.9837L33.9012 25.3231L34.6249 24.946C34.5611 24.825 34.5053 24.7189 34.4482 24.6104L34.2795 24.6778Z" fill="white"/>
<path d="M19.3628 20.5867L19.7004 20.415C19.4351 19.8923 19.1763 19.3826 18.9155 18.8687C18.7989 18.9203 18.6853 18.9787 18.5753 19.0433C18.6084 19.1153 18.6353 19.1742 18.6673 19.2436C18.5433 19.2997 18.4323 19.3568 18.3164 19.4007C18.1206 19.475 17.9674 19.4242 17.846 19.2544C17.8217 19.2205 17.7992 19.1853 17.7709 19.1432L17.4336 19.3177C17.477 19.4023 17.5111 19.4723 17.5485 19.5406C17.6099 19.6642 17.711 19.7638 17.8356 19.8231C17.9603 19.8825 18.1013 19.8984 18.236 19.8682C18.4164 19.8331 18.5905 19.7723 18.7534 19.6874C18.7901 19.6694 18.8283 19.6546 18.8709 19.6361C18.9364 19.7651 19.0002 19.8791 19.0544 20.0063L18.3927 20.3415L18.2895 20.1489C18.0987 20.2222 18.0014 20.2787 17.9546 20.3433L18.367 21.1575C18.4858 21.1078 18.6007 21.0498 18.7112 20.9837L18.597 20.7376C18.8222 20.6226 19.0344 20.5112 19.2553 20.4066L19.3628 20.5867Z" fill="white"/>
<path d="M24.7131 24.8508C24.6671 24.968 24.5507 25.0003 24.4583 25.0611C24.4433 25.065 24.4273 25.0632 24.4137 25.0561C24.3707 25.0399 24.3286 25.0214 24.2783 25.0005C24.3535 24.8034 24.4255 24.6152 24.5014 24.4163L23.8691 24.1699C23.8211 24.2958 23.7774 24.4101 23.7317 24.5296C23.7763 24.5488 23.8082 24.5621 23.8395 24.5763C23.8737 24.5915 23.9074 24.6078 23.9483 24.6269C23.8576 24.8589 23.7716 25.0792 23.681 25.3114L23.4561 25.2322L23.3164 25.5925L24.0967 25.896L24.2351 25.5395L24.0956 25.4676C24.1206 25.4073 24.1435 25.3514 24.1654 25.2988C24.212 25.2982 24.2573 25.3141 24.2932 25.3438C24.3292 25.3734 24.3535 25.4148 24.3619 25.4606C24.4176 25.6433 24.4839 25.8227 24.5494 26.0023C24.5591 26.0388 24.5812 26.0708 24.612 26.0927C24.7205 26.1431 24.8337 26.1826 24.9542 26.2297L25.0942 25.8687C25.0396 25.8468 24.9956 25.8322 24.9544 25.8115C24.9257 25.8009 24.901 25.7818 24.8836 25.7567C24.8225 25.6189 24.7675 25.4783 24.7073 25.3311C24.8482 25.2499 24.9748 25.1736 25.1051 25.1046C25.1376 25.0953 25.1722 25.0968 25.2038 25.1089C25.2584 25.1233 25.3111 25.1449 25.3706 25.1659C25.4186 25.0414 25.4618 24.9303 25.5089 24.8085L24.8342 24.5457C24.7904 24.6558 24.7515 24.7535 24.7131 24.8508Z" fill="white"/>
<path d="M39.7895 15.86C39.688 15.8558 39.5865 15.859 39.4849 15.8586C39.3144 15.858 39.2883 15.8384 39.2357 15.6734C39.2119 15.599 39.1881 15.5247 39.1643 15.4504C39.1582 15.4319 39.1517 15.4135 39.1449 15.3952C39.1359 15.3669 39.118 15.3423 39.0939 15.325C39.0697 15.3077 39.0406 15.2987 39.011 15.2993C38.9812 15.2988 38.9521 15.3082 38.9282 15.326C38.9043 15.3438 38.887 15.3689 38.8788 15.3976C38.8425 15.5006 38.8105 15.6052 38.7754 15.7085C38.7334 15.8325 38.7003 15.857 38.5723 15.8583C38.4629 15.8597 38.3535 15.8567 38.2443 15.8597C38.2108 15.8557 38.177 15.8635 38.1487 15.8818C38.1206 15.9002 38.0997 15.9278 38.0897 15.9601C38.0693 16.0247 38.0886 16.077 38.1576 16.131C38.2436 16.1986 38.3314 16.2632 38.4182 16.3303C38.5248 16.4128 38.5391 16.4545 38.501 16.582C38.4688 16.6904 38.431 16.7972 38.4001 16.906C38.3865 16.9369 38.3843 16.9717 38.394 17.004C38.4039 17.0363 38.425 17.064 38.4536 17.082C38.4797 17.0999 38.511 17.1082 38.5425 17.1057C38.574 17.1031 38.6036 17.0899 38.6265 17.0682C38.6924 17.0196 38.7593 16.972 38.8254 16.9235C39.0018 16.794 39.0212 16.7936 39.1946 16.9179C39.2612 16.9659 39.327 17.0149 39.3948 17.0609C39.4668 17.1097 39.5237 17.1116 39.5787 17.0711C39.6336 17.0306 39.6456 16.9782 39.6217 16.8917C39.6163 16.8729 39.6101 16.8544 39.604 16.8358C39.5765 16.7505 39.5474 16.6656 39.5216 16.5796C39.4864 16.4619 39.5022 16.4131 39.6004 16.3361C39.6893 16.2662 39.7798 16.1983 39.8701 16.1297C39.8901 16.1179 39.9071 16.1016 39.9197 16.0818C39.9322 16.0622 39.9399 16.0399 39.942 16.0168C39.9436 15.9961 39.9409 15.9753 39.9339 15.9558C39.927 15.9363 39.9158 15.9185 39.9014 15.9037C39.8869 15.8888 39.8695 15.8773 39.8502 15.8698C39.8308 15.8622 39.8102 15.859 39.7895 15.86Z" fill="white"/>
<path d="M17.8525 16.872C17.9364 16.9289 18.0173 16.9902 18.1005 17.0481C18.1892 17.1098 18.2451 17.1157 18.3028 17.0699C18.3741 17.0136 18.3635 16.9425 18.3387 16.8679C18.3078 16.7755 18.2789 16.6825 18.2503 16.5892C18.2092 16.4546 18.2225 16.4136 18.3335 16.3282C18.4234 16.2593 18.5153 16.1934 18.6029 16.1219C18.6868 16.0535 18.6958 15.9612 18.6209 15.903C18.583 15.8771 18.5383 15.8626 18.4924 15.8611C18.3874 15.8552 18.2818 15.8599 18.1765 15.8587C18.0471 15.8571 18.0152 15.8338 17.9732 15.7094C17.9383 15.6061 17.9063 15.5017 17.8709 15.3985C17.8623 15.3703 17.845 15.3455 17.8215 15.3277C17.798 15.3098 17.7694 15.2999 17.7398 15.2993C17.7104 15.2988 17.6813 15.3077 17.6572 15.3246C17.633 15.3415 17.6148 15.3655 17.6051 15.3935C17.5954 15.4189 17.5871 15.4449 17.5785 15.4708C17.5492 15.5597 17.5203 15.6486 17.4908 15.7374C17.482 15.7739 17.4606 15.8061 17.4303 15.8283C17.4001 15.8506 17.3629 15.8613 17.3255 15.8588C17.267 15.8584 17.2085 15.8588 17.1499 15.8588L16.9744 15.8595C16.941 15.856 16.9074 15.8636 16.8787 15.8809C16.85 15.8981 16.8277 15.9244 16.815 15.9553C16.789 16.0193 16.8116 16.0752 16.8869 16.1352C16.9697 16.2003 17.0548 16.2628 17.1381 16.3269C17.2545 16.4159 17.2665 16.4547 17.2217 16.5979C17.1902 16.6984 17.1537 16.7975 17.128 16.8993C17.116 16.9434 17.1178 16.9901 17.1334 17.0331C17.1681 17.1121 17.2604 17.1286 17.3418 17.0739C17.4358 17.011 17.5248 16.941 17.6176 16.8761C17.6489 16.8458 17.6907 16.8286 17.7342 16.8278C17.7777 16.8271 17.82 16.8429 17.8525 16.872Z" fill="white"/>
<path d="M38.4598 20.1436C38.2324 20.025 38.0123 19.9129 37.7945 19.7824L37.9204 19.5577L38.1814 19.6846L38.3846 19.3028L37.7967 18.9878L36.9258 20.612C37.127 20.72 37.3154 20.8255 37.5156 20.9257L37.7181 20.546L37.464 20.4022L37.5853 20.1804C37.8121 20.3023 38.0326 20.4138 38.247 20.5396C38.2095 20.618 38.1782 20.6834 38.1447 20.7534L38.4826 20.934L38.9313 20.098L38.5916 19.9174C38.5453 19.9972 38.5047 20.0666 38.4598 20.1436Z" fill="white"/>
<path d="M37.595 21.5908C37.5345 21.544 37.4826 21.5042 37.4308 21.464C37.3104 21.3708 37.1946 21.2708 37.0686 21.1857C36.8483 21.0371 36.6385 21.0511 36.4324 21.2192C36.2889 21.3354 36.1782 21.4869 36.1108 21.6588C36.0591 21.7756 36.032 21.9018 36.0312 22.0295L36.318 22.091C36.3329 22.0446 36.3427 22.0113 36.3539 21.9787C36.4017 21.8248 36.4927 21.6879 36.616 21.5842C36.7276 21.4955 36.8205 21.5063 36.9238 21.6113C36.8674 21.6717 36.8163 21.7252 36.7663 21.7799C36.6573 21.8873 36.5777 22.0208 36.535 22.1677C36.5109 22.249 36.5111 22.3355 36.5359 22.4165C36.5607 22.4975 36.6089 22.5694 36.6744 22.6232C36.7364 22.6842 36.8154 22.7247 36.9011 22.7394C36.9868 22.754 37.0749 22.7421 37.1535 22.7051C37.2374 22.6644 37.3143 22.6106 37.3813 22.5458C37.4925 22.4428 37.5598 22.301 37.5694 22.1497C37.6036 22.1502 37.6374 22.1425 37.6682 22.1273C37.7901 21.9816 37.9068 21.8312 38.0301 21.6759L37.729 21.4356L37.595 21.5908ZM37.2623 22.1422C37.2348 22.1976 37.1987 22.2483 37.1555 22.2926C37.1288 22.3242 37.0909 22.3443 37.0499 22.3487C37.0087 22.3531 36.9674 22.3414 36.9347 22.3162C36.9018 22.2909 36.8803 22.2539 36.874 22.213C36.8678 22.1721 36.8777 22.1304 36.9015 22.0966C36.9236 22.0602 36.9486 22.0256 36.9765 21.9934C37.0268 21.9295 37.0784 21.8664 37.1299 21.8036C37.1385 21.7974 37.1477 21.7926 37.1577 21.7892C37.3352 21.9075 37.3522 21.9577 37.2623 22.1422Z" fill="white"/>
<path d="M19.4854 21.5485L20.1849 22.4328C20.3072 22.3466 20.4123 22.2384 20.4951 22.1139C20.5622 22.0125 20.6008 21.8949 20.6067 21.7735C20.6136 21.4527 20.4595 21.217 20.194 21.0617C19.6759 20.7583 19.1043 21.1466 18.9943 21.6025C18.9737 21.6856 18.9678 21.7717 18.9767 21.857C19.0196 22.2237 19.3321 22.5678 19.7086 22.6657L19.8344 22.3775C19.793 22.349 19.7561 22.3276 19.7239 22.3005C19.6464 22.2356 19.5674 22.1719 19.4961 22.1004C19.4232 22.028 19.3787 21.9318 19.3708 21.8294C19.3608 21.7765 19.3663 21.7219 19.3867 21.6721C19.4071 21.6223 19.4413 21.5794 19.4854 21.5485ZM20.1462 21.4756C20.2602 21.6195 20.2569 21.7448 20.125 21.8807L19.7309 21.381C19.8819 21.2904 20.0291 21.3275 20.1462 21.4756Z" fill="white"/>
<path d="M26.3173 24.9356C26.2107 24.9352 26.1051 24.9563 26.0068 24.9975C25.9084 25.0387 25.8193 25.0991 25.7446 25.1752C25.6699 25.2514 25.6112 25.3416 25.5719 25.4407C25.5326 25.5399 25.5135 25.6458 25.5158 25.7524C25.5158 26.1772 25.8211 26.5459 26.3474 26.5496C26.8859 26.5534 27.1422 26.112 27.142 25.742C27.1452 25.2894 26.7879 24.9399 26.3173 24.9356ZM26.3272 26.1477C26.2763 26.1488 26.2256 26.1396 26.1785 26.1204C26.1313 26.1013 26.0884 26.0728 26.0527 26.0367C26.0168 26.0005 25.9887 25.9574 25.97 25.91C25.9514 25.8626 25.9426 25.8118 25.9443 25.761C25.9424 25.5164 26.1074 25.3346 26.3304 25.3358C26.3814 25.3328 26.4325 25.3406 26.4803 25.3588C26.528 25.3771 26.5713 25.4053 26.6073 25.4417C26.6433 25.4778 26.6711 25.5215 26.6888 25.5693C26.7067 25.6173 26.714 25.6684 26.7105 25.7194C26.7077 26.0062 26.5051 26.1629 26.3272 26.1477Z" fill="white"/>
<path d="M22.5776 23.4655C22.1677 23.4559 21.7685 23.8019 21.7618 24.2914C21.7558 24.7166 22.1526 25.0899 22.596 25.0927C23.0267 25.0953 23.3932 24.7218 23.3954 24.2775C23.3976 23.8397 23.026 23.476 22.5776 23.4655ZM22.5634 24.6844C22.5136 24.6842 22.4643 24.6741 22.4186 24.6547C22.3727 24.6353 22.3312 24.6069 22.2966 24.5711C22.2618 24.5355 22.2346 24.4933 22.2165 24.4469C22.1982 24.4006 22.1896 24.3511 22.1908 24.3014C22.1908 24.0709 22.378 23.8698 22.5934 23.868C22.6936 23.8678 22.7898 23.907 22.8614 23.9772C22.9329 24.0473 22.974 24.1427 22.9759 24.2429C22.9747 24.4737 22.7787 24.6834 22.5634 24.6844Z" fill="white"/>
<path d="M22.0948 23.1741C22.0636 23.1373 22.03 23.1026 21.9941 23.0705C21.9258 23.0184 21.8748 22.9469 21.8477 22.8655C21.7972 22.7378 21.7131 22.6261 21.6041 22.5426C21.3574 22.3346 21.0818 22.2803 20.7868 22.4093C20.6419 22.4665 20.5169 22.5649 20.4273 22.6924C20.3378 22.8199 20.2875 22.9707 20.2827 23.1265C20.2517 23.6269 20.7338 24.0542 21.231 23.9768C21.3222 23.9709 21.4091 23.9354 21.4783 23.8756C21.4431 23.8199 21.4101 23.7675 21.3764 23.7151C21.3411 23.66 21.3051 23.6051 21.2734 23.5562C21.2009 23.5692 21.1275 23.5763 21.0539 23.5771C21.0022 23.5737 20.9517 23.5597 20.9056 23.5362C20.8594 23.5126 20.8186 23.4798 20.7857 23.4399C20.7527 23.3999 20.7282 23.3537 20.7137 23.304C20.6992 23.2543 20.6949 23.2021 20.7013 23.1507C20.7292 22.9244 20.946 22.7468 21.1599 22.7752C21.251 22.7896 21.3351 22.8331 21.3996 22.899C21.4641 22.965 21.5057 23.0499 21.5181 23.1413C21.5191 23.179 21.5307 23.2157 21.5516 23.2471C21.6334 23.3293 21.7232 23.4035 21.8153 23.4856L22.0948 23.1741Z" fill="white"/>
<path d="M40.0948 10.7096C40.0496 10.6988 40.0075 10.6777 39.9718 10.6478C39.9017 10.5853 39.8575 10.4989 39.8479 10.4053C39.8383 10.312 39.8641 10.2183 39.9201 10.1428C39.9315 10.1276 39.9418 10.1117 39.9523 10.0965L39.8238 9.73145C39.6469 9.8652 39.5263 10.0152 39.5137 10.2296C39.4983 10.4657 39.5748 10.6986 39.7273 10.8796C39.8685 11.0523 40.0585 11.1123 40.2962 11.0953C40.2588 10.9862 40.2233 10.8959 40.1975 10.803C40.1924 10.7786 40.1796 10.7565 40.1612 10.7397C40.1428 10.723 40.1195 10.7125 40.0948 10.7096Z" fill="white"/>
<path d="M30.2307 15.4376C30.0878 15.358 29.9406 15.2863 29.7898 15.2226C29.7162 15.1894 29.637 15.1681 29.5529 15.1387C29.5576 15.0571 29.5636 14.9796 29.5663 14.9021C29.5718 14.7416 29.4974 14.6655 29.3382 14.6553C29.241 14.6512 29.1442 14.6388 29.049 14.6181C28.6161 14.5142 28.2579 14.2741 27.9272 13.9872C27.8705 13.9379 27.8659 13.8981 27.9103 13.8218C28.0007 13.6668 28.0863 13.5079 28.1894 13.3618C28.549 12.8644 28.9653 12.4104 29.4298 12.0092C29.7254 11.7476 30.0316 11.4988 30.3888 11.3219C30.4165 11.3076 30.4417 11.289 30.4637 11.2669C30.6218 11.1103 30.7814 10.9546 30.9356 10.7943C30.9664 10.7654 30.9914 10.7306 31.0089 10.692C31.0263 10.6535 31.0361 10.6118 31.0373 10.5694C31.0386 10.5271 31.0315 10.485 31.0165 10.4453C31.0014 10.4058 30.9787 10.3695 30.9495 10.3387C30.7766 10.153 30.5967 9.97322 30.4117 9.79983C30.35 9.7408 30.2676 9.70831 30.1822 9.7095C30.0968 9.7107 30.0153 9.74535 29.9552 9.80611C29.9262 9.8321 29.8993 9.8608 29.8717 9.88842C28.9248 10.8359 27.9778 11.7834 27.0308 12.7312C27.0095 12.7587 26.9826 12.7815 26.9521 12.7982C26.9214 12.815 26.8876 12.8253 26.853 12.8283C26.7541 12.8351 26.6619 12.8804 26.5959 12.9542C26.317 13.2332 26.0362 13.5103 25.7598 13.7917C25.7175 13.8314 25.6838 13.8794 25.6607 13.9327C25.6375 13.9859 25.6254 14.0433 25.625 14.1012C25.6247 14.1593 25.6362 14.2168 25.6587 14.2703C25.6814 14.3238 25.7145 14.3721 25.7563 14.4122C25.9345 14.5985 26.119 14.7787 26.3025 14.9597C26.345 15.0063 26.3983 15.0417 26.4578 15.063C26.5171 15.0843 26.5808 15.0907 26.6433 15.0818C26.7567 15.0629 26.8084 15.1136 26.8523 15.2082C26.8103 15.2267 26.7718 15.2441 26.7328 15.2605C26.5504 15.331 26.3805 15.4302 26.2294 15.5542C26.1362 15.629 26.0615 15.7241 26.0108 15.8324C25.9602 15.9405 25.9351 16.0589 25.9373 16.1783C25.9402 17.4361 25.9385 18.6937 25.939 19.9513C25.938 19.9942 25.942 20.0372 25.951 20.0791C25.9601 20.1142 25.9786 20.1461 26.0047 20.1714C26.0307 20.1966 26.0632 20.2143 26.0985 20.2224C26.1338 20.2305 26.1708 20.2288 26.2052 20.2174C26.2396 20.206 26.2703 20.1854 26.2938 20.1578C26.3321 20.1127 26.3512 20.0543 26.3468 19.9953C26.3459 19.8039 26.3459 19.6125 26.3468 19.4212C26.3468 19.3883 26.3523 19.3553 26.3562 19.3133C26.3814 19.3223 26.4062 19.3325 26.4304 19.3438C26.6979 19.482 26.9837 19.5813 27.2793 19.6384C27.3097 19.6455 27.3408 19.6493 27.372 19.6499C27.4192 19.6511 27.4653 19.6355 27.5023 19.6059C27.5391 19.5763 27.5642 19.5346 27.5732 19.4882C27.5822 19.4417 27.5745 19.3937 27.5513 19.3525C27.5283 19.3112 27.4913 19.2795 27.447 19.2629C27.4035 19.2465 27.3556 19.2424 27.3112 19.2281C27.1145 19.1651 26.9156 19.1077 26.7233 19.0333C26.6309 18.9919 26.5445 18.9378 26.4667 18.8727C26.4257 18.8423 26.3931 18.802 26.3719 18.7556C26.3507 18.7093 26.3415 18.6583 26.345 18.6074C26.35 18.42 26.346 18.2324 26.347 18.045C26.3492 18.0145 26.3533 17.9843 26.3594 17.9544C26.483 18.015 26.592 18.0756 26.7066 18.123C27.216 18.3343 27.7509 18.4067 28.2984 18.4067C28.3141 18.4071 28.3296 18.4061 28.3451 18.4039C28.382 18.3981 28.4166 18.3822 28.4448 18.3577C28.473 18.3333 28.4937 18.3013 28.5044 18.2656C28.5161 18.2322 28.518 18.1961 28.5102 18.1616C28.5023 18.127 28.485 18.0955 28.46 18.0705C28.4384 18.0479 28.4124 18.0301 28.3834 18.0185C28.3545 18.0069 28.3233 18.0019 28.2922 18.0034C28.0974 17.9925 27.9021 17.9838 27.7083 17.9632C27.4125 17.9338 27.1228 17.8606 26.8485 17.7459C26.7141 17.6922 26.5896 17.6163 26.4803 17.5213C26.4466 17.4973 26.4181 17.4668 26.3963 17.4317C26.3745 17.3967 26.3598 17.3576 26.3531 17.3168C26.3445 17.1435 26.3505 16.9695 26.3505 16.7775C26.4524 16.8306 26.5354 16.8787 26.6226 16.9184C26.7112 16.9588 26.8024 16.9937 26.8947 17.0257C26.9831 17.0566 27.0728 17.084 27.1636 17.1068C27.2581 17.1308 27.3541 17.1491 27.4502 17.166C27.5461 17.1828 27.6428 17.197 27.7397 17.2079C27.8366 17.2187 27.934 17.2265 28.0313 17.2316C28.1249 17.2365 28.2188 17.2376 28.3124 17.2376C28.4101 17.2376 28.5077 17.2364 28.6052 17.2316C28.7027 17.2267 28.7999 17.2187 28.8969 17.2076C28.9938 17.1965 29.0902 17.1815 29.186 17.1641C29.282 17.1468 29.3779 17.1275 29.4722 17.1036C29.5629 17.0807 29.6531 17.0542 29.7412 17.023C29.8331 16.9907 29.9236 16.9537 30.0122 16.9133C30.0983 16.8741 30.1814 16.8281 30.2676 16.7839C30.2725 16.7964 30.2763 16.8094 30.279 16.8225C30.2798 17.1819 30.2803 17.5411 30.2807 17.9005C30.281 17.9398 30.2733 17.9788 30.2578 18.015C30.2425 18.0511 30.2198 18.0838 30.1913 18.1109C30.1333 18.1685 30.0698 18.2205 30.0019 18.2661C29.8491 18.361 29.6832 18.4328 29.5094 18.4795C29.4346 18.5015 29.3585 18.519 29.2836 18.541C29.2452 18.5495 29.2102 18.5698 29.1837 18.599C29.1572 18.6283 29.1403 18.665 29.1355 18.7041C29.1295 18.738 29.1323 18.7729 29.1437 18.8054C29.1551 18.8378 29.1747 18.8668 29.2006 18.8895C29.2264 18.9121 29.2577 18.9278 29.2914 18.9349C29.3251 18.9419 29.36 18.9402 29.3929 18.9298C29.6685 18.8724 29.9338 18.7728 30.179 18.6342C30.2067 18.6181 30.2368 18.606 30.2813 18.5844V19.9399C30.2799 19.9789 30.2812 20.018 30.2851 20.0569C30.2916 20.1048 30.3155 20.1487 30.352 20.1804C30.3886 20.212 30.4355 20.2292 30.4838 20.2289C30.5323 20.2286 30.5788 20.2106 30.6149 20.1784C30.6511 20.1463 30.6742 20.102 30.6802 20.054C30.684 20.0112 30.6851 19.9682 30.6837 19.9253V17.242C30.6837 16.8748 30.6811 16.5078 30.6846 16.1407C30.6869 16.0506 30.6709 15.961 30.6376 15.8773C30.6042 15.7934 30.5542 15.7174 30.4907 15.6536C30.4139 15.5704 30.3265 15.4979 30.2307 15.4376ZM29.135 15.0534C29.1375 15.0841 29.1373 15.1148 29.1343 15.1454C29.0773 15.4506 28.9255 15.7302 28.7005 15.9442C28.678 15.9681 28.6506 15.9869 28.6202 15.9993C28.5897 16.0117 28.557 16.0174 28.5242 16.0161C28.2829 16.0119 28.0414 16.0145 27.7882 16.0145C27.6343 15.5753 27.3935 15.1716 27.0802 14.8274L27.6338 14.2746C28.0651 14.6451 28.5437 14.9513 29.135 15.0534ZM30.2135 10.1649C30.3077 10.2604 30.4117 10.3658 30.5156 10.4715C30.5399 10.4963 30.5632 10.5222 30.5925 10.5535C30.5719 10.579 30.5547 10.6037 30.5343 10.6251C30.3562 10.8215 30.1498 10.9902 29.9221 11.1259C29.6125 11.3017 29.3443 11.5384 29.0811 11.7777C28.6438 12.1681 28.2473 12.6019 27.8975 13.0723C27.822 13.1757 27.7518 13.2831 27.6855 13.3796C27.5651 13.2598 27.4473 13.1429 27.3409 13.0371L30.2135 10.1649ZM26.5995 14.684C26.4095 14.4967 26.2178 14.3064 26.0398 14.1225C26.3395 13.8232 26.6278 13.5349 26.9202 13.2426C27.1219 13.4137 27.3096 13.6006 27.4816 13.8016C27.4381 13.8804 26.707 14.6155 26.5995 14.684ZM30.2334 16.2453C30.1758 16.3186 30.1081 16.3835 30.0323 16.4377C29.8367 16.5679 29.618 16.6591 29.3879 16.7065C28.5807 16.8941 27.7786 16.8882 26.9855 16.6295C26.821 16.5785 26.6668 16.4988 26.53 16.3941C26.2909 16.2063 26.2875 16.0302 26.5228 15.8417C26.6912 15.7138 26.8832 15.6207 27.0879 15.5677C27.1022 15.5664 27.1166 15.567 27.1307 15.5696C27.2196 15.7028 27.2914 15.8466 27.3444 15.9977C27.3064 16.0077 27.2771 16.0134 27.249 16.0232C27.2062 16.0377 27.1692 16.0656 27.1437 16.103C27.1181 16.1403 27.1054 16.185 27.1074 16.2301C27.112 16.2771 27.1327 16.3212 27.1661 16.3547C27.1996 16.3881 27.2434 16.4089 27.2905 16.4137C27.3255 16.4166 27.3607 16.4175 27.3958 16.4165H29.2348C29.27 16.4177 29.3051 16.4166 29.3401 16.4134C29.3888 16.4074 29.4335 16.3837 29.466 16.3468C29.4984 16.3099 29.516 16.2624 29.5157 16.2133C29.5153 16.1643 29.4969 16.1171 29.464 16.0807C29.431 16.0443 29.3858 16.0212 29.337 16.016C29.2961 16.0111 29.2547 16.01 29.2044 16.0066L29.4585 15.5407C29.7102 15.6154 29.9539 15.7045 30.1532 15.8846C30.1847 15.9138 30.2124 15.9467 30.2357 15.9829C30.265 16.0204 30.2808 16.0668 30.2803 16.1146C30.2799 16.1622 30.2634 16.2083 30.2334 16.2453Z" fill="white"/>
<path d="M30.9462 14.6045C30.8417 14.5937 30.7364 14.5941 30.632 14.6057C30.583 14.6115 30.538 14.6355 30.5057 14.6728C30.4733 14.7101 30.456 14.7581 30.4571 14.8074C30.4597 14.8586 30.4811 14.9072 30.5173 14.9436C30.5536 14.9798 30.602 15.0015 30.6532 15.0042C30.6997 15.008 30.7467 15.0049 30.7936 15.0049C30.8363 15.0049 30.8793 15.007 30.9221 15.0044C30.9732 15.0032 31.0221 14.9833 31.0592 14.9482C31.0965 14.9132 31.1194 14.8656 31.1237 14.8147C31.1272 14.7634 31.1107 14.7128 31.0775 14.6736C31.0444 14.6342 30.9973 14.6094 30.9462 14.6045Z" fill="white"/>
<path d="M29.4343 13.1018C29.3829 13.0974 29.3319 13.1134 29.2925 13.1465C29.2531 13.1797 29.2284 13.2271 29.224 13.2783C29.2124 13.3788 29.2118 13.4803 29.2222 13.5808C29.224 13.6073 29.231 13.633 29.2429 13.6566C29.2548 13.6804 29.2714 13.7014 29.2915 13.7184C29.3118 13.7355 29.3353 13.7483 29.3606 13.7561C29.3859 13.7639 29.4125 13.7665 29.4388 13.7636C29.4898 13.7592 29.5373 13.7358 29.5717 13.6979C29.6062 13.66 29.625 13.6105 29.6247 13.5594C29.6271 13.5166 29.625 13.4737 29.625 13.4308C29.625 13.388 29.6273 13.345 29.6246 13.3024C29.6235 13.2513 29.6035 13.2023 29.5683 13.1653C29.5331 13.1282 29.4853 13.1055 29.4343 13.1018Z" fill="white"/>
<path d="M30.4666 13.5377C30.442 13.5397 30.4183 13.5473 30.3971 13.5598C30.2981 13.6462 30.2053 13.7396 30.1192 13.8389C30.0638 13.9075 30.0925 14.0104 30.1575 14.0721C30.1886 14.1054 30.2309 14.126 30.2764 14.1299C30.3218 14.1338 30.3669 14.1207 30.4032 14.0932C30.4899 14.0208 30.5703 13.9413 30.6436 13.8555C30.6678 13.8266 30.6821 13.7908 30.6843 13.7532C30.6866 13.7156 30.6766 13.6784 30.656 13.6469C30.6378 13.6127 30.6104 13.5844 30.5768 13.5651C30.5435 13.5458 30.5053 13.5363 30.4666 13.5377Z" fill="white"/>
<path d="M35.5668 14.8657C35.5522 14.8656 35.5377 14.8686 35.5243 14.8747C35.511 14.8807 35.4992 14.8895 35.4897 14.9006C35.48 14.9116 35.473 14.9246 35.4689 14.9386C35.4648 14.9526 35.4638 14.9674 35.466 14.9818C35.4659 14.9954 35.4686 15.0089 35.4739 15.0213C35.4792 15.0339 35.4871 15.0451 35.4968 15.0545C35.5068 15.0638 35.5184 15.071 35.5313 15.0756C35.544 15.0802 35.5576 15.0822 35.5711 15.0813C35.5848 15.0804 35.598 15.0769 35.6102 15.0708C35.6223 15.0649 35.6332 15.0565 35.6422 15.0462C35.6511 15.0359 35.6579 15.024 35.6622 15.0111C35.6664 14.9982 35.6681 14.9847 35.6671 14.9712C35.6676 14.9576 35.6653 14.9441 35.6606 14.9313C35.6558 14.9186 35.6486 14.9071 35.6392 14.8972C35.6298 14.8873 35.6186 14.8795 35.6062 14.8741C35.5938 14.8686 35.5803 14.8658 35.5668 14.8657Z" fill="white"/>
<path d="M21.2634 13.9959C21.2906 13.9959 21.3167 13.9854 21.3362 13.9665C21.3557 13.9475 21.3671 13.9217 21.368 13.8946C21.3651 13.8696 21.354 13.8464 21.3364 13.8286C21.3188 13.8107 21.2956 13.7995 21.2707 13.7964C21.2573 13.7964 21.2439 13.799 21.2315 13.8041C21.219 13.8092 21.2077 13.8168 21.1981 13.8263C21.1886 13.8357 21.181 13.8471 21.1758 13.8595C21.1706 13.8719 21.168 13.8852 21.168 13.8988C21.169 13.9239 21.1793 13.9478 21.1969 13.9658C21.2146 13.9838 21.2383 13.9945 21.2634 13.9959Z" fill="white"/>
<path d="M23.6009 20.2593C23.5738 20.2592 23.5477 20.2697 23.5281 20.2885C23.5085 20.3073 23.4972 20.333 23.4961 20.36C23.499 20.3848 23.5102 20.408 23.5277 20.4259C23.5453 20.4438 23.5682 20.4554 23.5929 20.4588C23.62 20.4585 23.646 20.4477 23.665 20.4284C23.6842 20.4092 23.6951 20.3832 23.6953 20.3561C23.695 20.3309 23.685 20.3069 23.6674 20.2889C23.6499 20.2708 23.626 20.2603 23.6009 20.2593Z" fill="white"/>
<path d="M21.3718 16.0896C21.3711 16.0632 21.3597 16.0381 21.3404 16.0199C21.3211 16.0017 21.2953 15.992 21.2688 15.9927C21.2424 15.9936 21.2173 16.0048 21.1991 16.0241C21.181 16.0434 21.1711 16.0692 21.1719 16.0957C21.1723 16.1088 21.1752 16.1217 21.1807 16.1337C21.1861 16.1456 21.1938 16.1565 21.2033 16.1655C21.2128 16.1744 21.2242 16.1815 21.2364 16.1861C21.2487 16.1908 21.2618 16.193 21.2749 16.1926C21.288 16.1922 21.3009 16.1893 21.3129 16.1839C21.3249 16.1785 21.3356 16.1708 21.3446 16.1612C21.3536 16.1517 21.3607 16.1404 21.3653 16.1282C21.37 16.1159 21.3722 16.1029 21.3718 16.0896Z" fill="white"/>
<path d="M33.5581 19.8701C33.531 19.8721 33.5058 19.8841 33.4871 19.9037C33.4683 19.9233 33.4576 19.9492 33.457 19.9764C33.4591 20.0015 33.4706 20.025 33.4892 20.0421C33.5079 20.0591 33.5321 20.0686 33.5575 20.0687C33.5827 20.0692 33.6071 20.0598 33.6256 20.0426C33.6441 20.0254 33.6553 20.0017 33.6567 19.9766C33.6577 19.9494 33.6478 19.9229 33.6294 19.903C33.6109 19.883 33.5853 19.8712 33.5581 19.8701Z" fill="white"/>
<path d="M33.9258 19.461C33.9007 19.4603 33.8762 19.4693 33.8574 19.4858C33.8385 19.5026 33.8267 19.5259 33.8244 19.5509C33.823 19.578 33.8323 19.6045 33.8502 19.6249C33.8682 19.6452 33.8933 19.6578 33.9204 19.6599C33.9454 19.6587 33.9693 19.6489 33.9881 19.6323C34.0069 19.6155 34.0194 19.5928 34.0235 19.5681C34.0243 19.5411 34.0145 19.5149 33.9963 19.4948C33.978 19.4749 33.9528 19.4628 33.9258 19.461Z" fill="white"/>
<path d="M24.4566 9.05268C24.4817 9.05106 24.5054 9.04055 24.5234 9.0229C24.5414 9.00535 24.5525 8.98185 24.5547 8.95683C24.554 8.92976 24.5431 8.90387 24.524 8.88449C24.5051 8.86521 24.4795 8.85373 24.4524 8.85254C24.4274 8.85438 24.4038 8.86521 24.386 8.88297C24.3683 8.90073 24.3575 8.92424 24.3555 8.94936C24.3552 8.96279 24.3575 8.97622 24.3624 8.98878C24.3673 9.00135 24.3747 9.01283 24.3841 9.02247C24.3936 9.03211 24.4049 9.0398 24.4172 9.04489C24.4297 9.05008 24.4431 9.05279 24.4566 9.05268Z" fill="white"/>
<path d="M25.4298 21.4548C25.4047 21.4567 25.3813 21.4682 25.3645 21.487C25.3477 21.5058 25.3389 21.5304 25.3399 21.5556C25.3414 21.5807 25.352 21.6043 25.3697 21.6223C25.3874 21.6402 25.411 21.651 25.4361 21.6527C25.463 21.6514 25.4886 21.64 25.5077 21.6208C25.5267 21.6016 25.5379 21.5761 25.5391 21.5491C25.5368 21.5222 25.524 21.4973 25.5037 21.4797C25.4833 21.462 25.4567 21.453 25.4298 21.4548Z" fill="white"/>
<path d="M31.8104 21.2026C31.7851 21.2037 31.7611 21.2144 31.7434 21.2326C31.7256 21.2507 31.7155 21.275 31.7149 21.3003C31.7144 21.3257 31.7236 21.3504 31.7406 21.3692C31.7575 21.3881 31.781 21.3999 31.8062 21.402C31.8334 21.4031 31.8599 21.3936 31.8802 21.3754C31.9004 21.3572 31.9129 21.332 31.9147 21.3048C31.9135 21.2777 31.9021 21.2521 31.8827 21.2332C31.8633 21.2142 31.8375 21.2033 31.8104 21.2026Z" fill="white"/>
<path d="M27.0157 21.9484C26.9905 21.947 26.9657 21.9553 26.9463 21.9714C26.9269 21.9875 26.9143 22.0104 26.911 22.0354C26.9084 22.0553 26.9119 22.0756 26.921 22.0935C26.93 22.1114 26.9443 22.1263 26.962 22.1359C26.9795 22.1456 26.9997 22.1498 27.0197 22.1478C27.0397 22.146 27.0587 22.1381 27.0742 22.1252C27.0896 22.1124 27.1008 22.0952 27.1063 22.0758C27.1119 22.0565 27.1114 22.036 27.1051 22.0169C27.0989 21.9978 27.087 21.981 27.071 21.9688C27.055 21.9566 27.0357 21.9495 27.0157 21.9484Z" fill="white"/>
<path d="M25.9323 8.31918C25.9572 8.31615 25.9802 8.30499 25.9982 8.28756C26.0161 8.27012 26.0279 8.24716 26.0315 8.22247C26.0313 8.19528 26.0205 8.16929 26.0014 8.15001C25.9823 8.13073 25.9564 8.11969 25.9293 8.11914C25.9158 8.11925 25.9026 8.12229 25.8904 8.12781C25.878 8.13333 25.8671 8.14124 25.858 8.1512C25.8489 8.16117 25.8419 8.17286 25.8375 8.18553C25.8332 8.19831 25.8313 8.21174 25.8323 8.22517C25.8352 8.25008 25.8468 8.27326 25.8651 8.29048C25.8834 8.3077 25.9072 8.31788 25.9323 8.31918Z" fill="white"/>
<path d="M28.6323 7.89739C28.6593 7.89718 28.6852 7.88613 28.7043 7.86696C28.7235 7.84768 28.7341 7.82169 28.7342 7.79461C28.7337 7.78118 28.7307 7.76797 28.7251 7.75573C28.7194 7.7435 28.7114 7.73256 28.7014 7.72357C28.6914 7.71458 28.6798 7.70765 28.667 7.70331C28.6544 7.69887 28.6409 7.69703 28.6275 7.69801C28.6026 7.70115 28.5796 7.71306 28.5627 7.73158C28.5458 7.7501 28.536 7.77404 28.5352 7.79916C28.5379 7.82407 28.5491 7.84736 28.5666 7.86512C28.5843 7.88299 28.6075 7.89436 28.6323 7.89739Z" fill="white"/>
<path d="M21.9392 18.084C21.9118 18.0834 21.8854 18.0937 21.8654 18.1123C21.8455 18.131 21.8334 18.1566 21.832 18.1839C21.8336 18.2093 21.8442 18.2332 21.8617 18.2515C21.8792 18.2698 21.9027 18.2813 21.928 18.284C21.9541 18.285 21.9796 18.2755 21.999 18.2579C22.0184 18.2402 22.0301 18.2157 22.0315 18.1894C22.033 18.1633 22.0242 18.1376 22.0069 18.1179C21.9897 18.0981 21.9653 18.086 21.9392 18.084Z" fill="white"/>
<path d="M28.6554 22.0703C28.6303 22.0718 28.6064 22.082 28.588 22.0992C28.5696 22.1165 28.5579 22.1396 28.5547 22.1647C28.5543 22.1918 28.5646 22.218 28.5832 22.2376C28.6018 22.2573 28.6275 22.2688 28.6546 22.2698C28.6798 22.2698 28.7041 22.2602 28.7226 22.2431C28.7411 22.226 28.7525 22.2025 28.7544 22.1774C28.7549 22.1502 28.7449 22.1239 28.7264 22.1039C28.708 22.084 28.6825 22.0719 28.6554 22.0703Z" fill="white"/>
<path d="M29.7325 8.0191C29.7577 8.01672 29.7812 8.00545 29.7987 7.98737C29.8162 7.96917 29.8269 7.94545 29.8285 7.92022C29.8275 7.89293 29.816 7.86704 29.7963 7.8482C29.7766 7.82925 29.7504 7.81874 29.7231 7.81885C29.6979 7.8208 29.6743 7.83195 29.6569 7.85026C29.6395 7.86856 29.6295 7.89271 29.6289 7.91795C29.6289 7.93148 29.6315 7.94491 29.6367 7.95737C29.6419 7.96982 29.6496 7.98109 29.6593 7.99051C29.669 7.99993 29.6804 8.0073 29.693 8.01228C29.7056 8.01715 29.7191 8.01953 29.7325 8.0191Z" fill="white"/>
<path d="M35.0508 17.5708C35.0237 17.5715 34.9979 17.5826 34.979 17.602C34.96 17.6214 34.9493 17.6474 34.9492 17.6745C34.9494 17.6997 34.9594 17.7239 34.977 17.7419C34.9946 17.7599 35.0185 17.7704 35.0437 17.7711C35.0708 17.7713 35.097 17.7608 35.1164 17.7419C35.1359 17.7229 35.1471 17.6971 35.1477 17.6701C35.1448 17.645 35.1336 17.6219 35.1162 17.6039C35.0987 17.5859 35.0757 17.5743 35.0508 17.5708Z" fill="white"/>
<path d="M35.4414 14.4135C35.4421 14.4387 35.452 14.4629 35.4696 14.4812C35.4871 14.4994 35.5108 14.5105 35.5361 14.5122C35.5633 14.5125 35.5895 14.5022 35.6093 14.4836C35.6291 14.4649 35.641 14.4394 35.6424 14.4122C35.6407 14.3871 35.6303 14.3633 35.6129 14.3449C35.5954 14.3268 35.572 14.3152 35.5469 14.3125C35.5197 14.3125 35.4935 14.323 35.4739 14.3418C35.4543 14.3607 35.4426 14.3863 35.4414 14.4135Z" fill="white"/>
<path d="M32.3004 20.9218C32.2742 20.9174 32.2474 20.9236 32.2257 20.939C32.204 20.9545 32.1893 20.9779 32.185 21.0041C32.1805 21.0304 32.1867 21.0572 32.2022 21.0789C32.2176 21.1006 32.241 21.1152 32.2673 21.1196C32.2935 21.124 32.3203 21.1178 32.342 21.1024C32.3637 21.0869 32.3784 21.0635 32.3827 21.0373C32.3871 21.011 32.3809 20.9843 32.3655 20.9625C32.35 20.9408 32.3267 20.9262 32.3004 20.9218Z" fill="white"/>
<path d="M35.5454 15.4341C35.5203 15.4358 35.4966 15.4462 35.4784 15.4634C35.4601 15.4807 35.4485 15.5038 35.4455 15.5287C35.4444 15.5487 35.4494 15.5685 35.4597 15.5856C35.4699 15.6027 35.4852 15.6164 35.5033 15.6247C35.5214 15.6331 35.5416 15.6359 35.5615 15.6326C35.5811 15.6294 35.5994 15.6204 35.6139 15.6066C35.6284 15.5929 35.6385 15.5751 35.6427 15.5556C35.647 15.5361 35.6454 15.5157 35.638 15.4971C35.6307 15.4786 35.6179 15.4627 35.6014 15.4514C35.5848 15.4401 35.5654 15.4342 35.5454 15.4341Z" fill="white"/>
<path d="M34.2574 19.0215C34.2307 19.0214 34.2052 19.0317 34.1862 19.0504C34.1673 19.069 34.1565 19.0945 34.1563 19.1211C34.1562 19.1477 34.1665 19.1733 34.1852 19.1922C34.2039 19.2111 34.2293 19.2218 34.256 19.2221C34.2811 19.2212 34.3051 19.2112 34.3236 19.1941C34.3421 19.1769 34.3537 19.1536 34.3563 19.1286C34.3567 19.1014 34.3466 19.0752 34.3282 19.0553C34.3098 19.0353 34.2844 19.0232 34.2574 19.0215Z" fill="white"/>
<path d="M24.9458 21.2065C24.9202 21.2079 24.8961 21.2187 24.878 21.2367C24.8599 21.2548 24.8491 21.279 24.8477 21.3045C24.8471 21.3301 24.8565 21.355 24.8738 21.3738C24.8912 21.3927 24.915 21.404 24.9407 21.4056C24.9544 21.4059 24.9679 21.4036 24.9807 21.3986C24.9935 21.3938 25.0052 21.3863 25.0149 21.3768C25.0248 21.3673 25.0327 21.356 25.0381 21.3434C25.0435 21.3308 25.0464 21.3174 25.0466 21.3036C25.0435 21.2784 25.0318 21.2549 25.0134 21.2373C24.9951 21.2195 24.9711 21.2087 24.9458 21.2065Z" fill="white"/>
<path d="M30.8114 21.6533C30.7862 21.6548 30.7624 21.665 30.7441 21.6822C30.7258 21.6993 30.7141 21.7225 30.711 21.7474C30.7102 21.7734 30.7196 21.7986 30.7371 21.8178C30.7545 21.8371 30.7788 21.8487 30.8046 21.8504C30.8305 21.852 30.8561 21.8436 30.8759 21.8268C30.8956 21.81 30.9082 21.7862 30.9108 21.7604C30.9108 21.7333 30.9005 21.7071 30.8821 21.6873C30.8637 21.6675 30.8383 21.6553 30.8114 21.6533Z" fill="white"/>
<path d="M29.7525 21.9463C29.7391 21.9462 29.7257 21.9487 29.7133 21.9538C29.7009 21.959 29.6896 21.9666 29.6803 21.9762C29.6709 21.9859 29.6635 21.9973 29.6587 22.0098C29.654 22.0224 29.6518 22.0358 29.6524 22.0492C29.6541 22.0742 29.6648 22.0979 29.6827 22.1156C29.7004 22.1333 29.7239 22.144 29.749 22.1457C29.776 22.1442 29.8015 22.1326 29.8204 22.1132C29.8393 22.0938 29.8501 22.0681 29.8509 22.041C29.8488 22.016 29.8377 21.9925 29.8196 21.9751C29.8015 21.9577 29.7776 21.9474 29.7525 21.9463Z" fill="white"/>
<path d="M26.9922 8.02306C27.0174 8.02263 27.0416 8.01288 27.0597 7.99544C27.0781 7.97812 27.089 7.95451 27.0906 7.92927C27.0907 7.90198 27.0803 7.87577 27.0615 7.85595C27.0427 7.83624 27.0171 7.82454 26.9899 7.82324C26.9648 7.82541 26.9412 7.83613 26.9231 7.85368C26.905 7.87133 26.8935 7.89451 26.8906 7.91963C26.8904 7.93306 26.8929 7.94649 26.8978 7.95895C26.9029 7.97151 26.9103 7.98288 26.9198 7.99252C26.9292 8.00216 26.9405 8.00974 26.9529 8.01505C26.9653 8.02025 26.9786 8.02295 26.9922 8.02306Z" fill="white"/>
<path d="M31.298 8.51272C31.3251 8.51185 31.3507 8.50048 31.3697 8.4811C31.3886 8.4616 31.3993 8.43561 31.3995 8.40843C31.3992 8.39521 31.3962 8.382 31.3908 8.36987C31.3853 8.35763 31.3775 8.34669 31.3677 8.33759C31.3581 8.3285 31.3465 8.32146 31.3341 8.3168C31.3216 8.31214 31.3083 8.31009 31.295 8.31063C31.2816 8.31128 31.2685 8.31453 31.2565 8.32016C31.2444 8.3259 31.2337 8.33402 31.2248 8.34388C31.2159 8.35384 31.2091 8.36543 31.2047 8.37799C31.2003 8.39066 31.1986 8.40398 31.1994 8.41731C31.2016 8.44243 31.2128 8.46593 31.2308 8.48348C31.2489 8.50092 31.2728 8.51142 31.298 8.51272Z" fill="white"/>
<path d="M24.9176 8.76984C24.931 8.77092 24.9446 8.7693 24.9575 8.76518C24.9703 8.76096 24.9821 8.75435 24.9924 8.74547C25.0027 8.7367 25.0111 8.72598 25.0171 8.71396C25.0232 8.70183 25.0268 8.68872 25.0276 8.67518C25.0283 8.66208 25.0263 8.64898 25.0218 8.63663C25.0173 8.62439 25.0104 8.61302 25.0016 8.60338C24.9928 8.59363 24.9821 8.58583 24.9702 8.58031C24.9584 8.57468 24.9455 8.57154 24.9324 8.57089C24.9193 8.57035 24.9062 8.5723 24.8939 8.57685C24.8816 8.58129 24.8702 8.58811 24.8605 8.59699C24.8509 8.60576 24.843 8.61648 24.8375 8.6284C24.8319 8.6402 24.8288 8.65309 24.8281 8.6662C24.8278 8.69143 24.8368 8.7158 24.8533 8.73497C24.8697 8.75403 24.8926 8.76648 24.9176 8.76984Z" fill="white"/>
<path d="M24.009 9.37219C24.0341 9.37013 24.0577 9.35951 24.0758 9.34219C24.0939 9.32486 24.1055 9.30179 24.1088 9.27677C24.1089 9.24969 24.0984 9.2237 24.0794 9.20432C24.0605 9.18482 24.0347 9.17377 24.0076 9.17334C23.9825 9.17323 23.9582 9.18287 23.94 9.2002C23.9218 9.21764 23.9112 9.24136 23.9102 9.26648C23.9098 9.27991 23.9121 9.29334 23.9167 9.3059C23.9214 9.31847 23.9287 9.32995 23.9378 9.3398C23.947 9.34966 23.958 9.35757 23.9702 9.36309C23.9825 9.36861 23.9957 9.37175 24.009 9.37219Z" fill="white"/>
<path d="M22.185 11.4178C22.2112 11.4176 22.2363 11.4071 22.2549 11.3886C22.2734 11.37 22.284 11.345 22.2843 11.3188C22.2847 11.2925 22.2747 11.2673 22.2566 11.2482C22.2385 11.2294 22.2136 11.2182 22.1874 11.2173C22.1609 11.217 22.1352 11.2273 22.1161 11.2458C22.0972 11.2643 22.0863 11.2897 22.0859 11.3163C22.0857 11.343 22.0959 11.3685 22.1144 11.3876C22.133 11.4067 22.1584 11.4175 22.185 11.4178Z" fill="white"/>
<path d="M21.9192 11.9035C21.9462 11.9028 21.972 11.8919 21.9914 11.8728C22.0108 11.854 22.0222 11.8283 22.0235 11.8012C22.0226 11.7751 22.0114 11.7503 21.9924 11.7323C21.9734 11.7144 21.9481 11.7045 21.922 11.7051C21.8958 11.7055 21.8709 11.7163 21.8526 11.7351C21.8343 11.7537 21.8241 11.7788 21.8242 11.805C21.8253 11.8301 21.8356 11.8541 21.853 11.8722C21.8705 11.8904 21.894 11.9014 21.9192 11.9035Z" fill="white"/>
<path d="M21.7007 12.4045C21.7257 12.4039 21.7496 12.3936 21.7674 12.3759C21.7852 12.3583 21.7957 12.3345 21.7965 12.3094C21.7969 12.2823 21.7866 12.2562 21.7677 12.2366C21.749 12.2171 21.7232 12.2058 21.6961 12.2051C21.6712 12.208 21.6481 12.2192 21.6302 12.2367C21.6123 12.2544 21.6008 12.2776 21.5977 12.3024C21.5979 12.3296 21.6088 12.3556 21.6281 12.3746C21.6474 12.3938 21.6735 12.4045 21.7007 12.4045Z" fill="white"/>
<path d="M21.3597 13.4557C21.3731 13.4569 21.3867 13.4554 21.3995 13.4512C21.4123 13.4469 21.4241 13.4402 21.4343 13.4314C21.4444 13.4225 21.4527 13.4116 21.4586 13.3995C21.4645 13.3873 21.4679 13.3742 21.4686 13.3606C21.4689 13.3472 21.4666 13.3338 21.4617 13.3212C21.4569 13.3085 21.4496 13.2971 21.4403 13.2873C21.4309 13.2776 21.4197 13.2698 21.4074 13.2644C21.395 13.259 21.3817 13.2561 21.3682 13.2559C21.343 13.2576 21.3193 13.2684 21.3012 13.286C21.2831 13.3036 21.2719 13.3271 21.2695 13.3522C21.2696 13.3774 21.2788 13.4017 21.2954 13.4207C21.3119 13.4397 21.3348 13.4521 21.3597 13.4557Z" fill="white"/>
<path d="M35.3789 13.8635C35.3806 13.8904 35.3923 13.9158 35.4116 13.9345C35.431 13.9534 35.4567 13.9643 35.4837 13.9653C35.5106 13.9633 35.5358 13.9506 35.5535 13.9303C35.5713 13.9097 35.5803 13.8832 35.5784 13.8561C35.576 13.8311 35.5641 13.8079 35.5452 13.7913C35.5262 13.7749 35.5016 13.7661 35.4765 13.7672C35.4516 13.7691 35.428 13.7799 35.4101 13.7975C35.3923 13.8151 35.3813 13.8384 35.3789 13.8635Z" fill="white"/>
<path d="M35.2774 13.324C35.2775 13.3376 35.2802 13.3511 35.2856 13.3637C35.2909 13.3763 35.2988 13.3875 35.3086 13.3969C35.3184 13.4064 35.3301 13.4137 35.3428 13.4186C35.3556 13.4234 35.3692 13.4256 35.3828 13.4251C35.4081 13.4215 35.4313 13.4087 35.448 13.3895C35.4647 13.3701 35.4737 13.3454 35.4736 13.3197C35.4719 13.2943 35.4604 13.2703 35.4416 13.2531C35.4226 13.2359 35.3978 13.2266 35.3723 13.2271C35.3596 13.2269 35.3469 13.2293 35.3352 13.234C35.3235 13.2388 35.3128 13.2461 35.3039 13.2551C35.295 13.2642 35.2881 13.275 35.2836 13.2868C35.2789 13.2987 35.277 13.3113 35.2774 13.324Z" fill="white"/>
<path d="M34.5602 18.5596C34.5346 18.5593 34.5098 18.5686 34.4907 18.5857C34.4717 18.6027 34.4597 18.6264 34.4573 18.6519C34.4563 18.6652 34.4579 18.6785 34.4623 18.6911C34.4664 18.7037 34.4732 18.7154 34.482 18.7253C34.4908 18.7354 34.5016 18.7435 34.5136 18.7491C34.5256 18.7548 34.5386 18.7582 34.5519 18.7587C34.5652 18.7594 34.5786 18.7572 34.591 18.7527C34.6036 18.748 34.615 18.7409 34.6246 18.7318C34.6343 18.7227 34.642 18.7116 34.6475 18.6995C34.6528 18.6873 34.6557 18.6742 34.6559 18.6608C34.6547 18.6353 34.6443 18.6111 34.6268 18.5925C34.6092 18.574 34.5856 18.5623 34.5602 18.5596Z" fill="white"/>
<path d="M25.4235 8.52318C25.4422 8.52199 25.4602 8.5156 25.4754 8.50444C25.4905 8.4934 25.5022 8.47813 25.509 8.46058C25.5156 8.44304 25.5172 8.42397 25.5133 8.40556C25.5094 8.38726 25.5003 8.37036 25.4871 8.35704C25.4739 8.34372 25.4571 8.33441 25.4388 8.3304C25.4205 8.32639 25.4013 8.32769 25.3838 8.33419C25.3661 8.34069 25.3507 8.35217 25.3396 8.36722C25.3283 8.38228 25.3216 8.40026 25.3203 8.41899C25.3203 8.43253 25.3229 8.44607 25.328 8.45874C25.3332 8.4713 25.3407 8.48278 25.3503 8.49253C25.3599 8.50217 25.3713 8.50986 25.3839 8.51517C25.3964 8.52047 25.41 8.52307 25.4235 8.52318Z" fill="white"/>
<path d="M34.5517 11.3924C34.5771 11.3903 34.6009 11.3786 34.6181 11.3595C34.6353 11.3406 34.6445 11.3157 34.6438 11.2901C34.6432 11.2644 34.6329 11.2401 34.6147 11.2219C34.5967 11.2037 34.5723 11.1932 34.5468 11.1924C34.5337 11.1926 34.5207 11.1956 34.5087 11.2009C34.4966 11.2062 34.4859 11.2139 34.4768 11.2234C34.4677 11.2329 34.4607 11.2441 34.4559 11.2563C34.4512 11.2686 34.4489 11.2817 34.4493 11.2948C34.4495 11.308 34.4525 11.3208 34.4578 11.3329C34.4631 11.3448 34.4708 11.3557 34.4803 11.3647C34.4897 11.3738 34.501 11.381 34.5132 11.3856C34.5255 11.3903 34.5386 11.3926 34.5517 11.3924Z" fill="white"/>
<path d="M22.4875 10.9532C22.5132 10.9526 22.5376 10.9421 22.5559 10.9241C22.5741 10.9061 22.5848 10.8818 22.5858 10.8562C22.5852 10.8425 22.582 10.8292 22.5763 10.8168C22.5706 10.8044 22.5625 10.7933 22.5525 10.7839C22.5424 10.7747 22.5307 10.7675 22.5178 10.7628C22.5051 10.7581 22.4915 10.7559 22.4779 10.7564C22.4523 10.7588 22.4286 10.7708 22.4117 10.7901C22.3948 10.8093 22.3858 10.8343 22.3868 10.86C22.3883 10.8855 22.3997 10.9095 22.4184 10.9268C22.4372 10.9441 22.462 10.9536 22.4875 10.9532Z" fill="white"/>
<path d="M23.1851 10.1048C23.2104 10.105 23.2349 10.0959 23.2537 10.0791C23.2725 10.0623 23.2845 10.0391 23.2871 10.014C23.2884 9.9869 23.2791 9.96036 23.2613 9.93989C23.2433 9.91953 23.2182 9.90686 23.1912 9.9048C23.1649 9.90437 23.1397 9.91444 23.1207 9.93253C23.1017 9.95072 23.0907 9.97552 23.0899 10.0018C23.0892 10.028 23.0987 10.0534 23.1165 10.0728C23.1342 10.092 23.1589 10.1035 23.1851 10.1048Z" fill="white"/>
<path d="M22.8357 19.4663C22.8222 19.4662 22.8088 19.4689 22.7962 19.4742C22.7838 19.4795 22.7724 19.4872 22.763 19.4969C22.7534 19.5066 22.7461 19.5181 22.7411 19.5308C22.7362 19.5435 22.7339 19.557 22.7344 19.5706C22.7355 19.5959 22.7463 19.62 22.7646 19.6377C22.7828 19.6554 22.8073 19.6653 22.8326 19.6655C22.8581 19.664 22.882 19.6532 22.9 19.6351C22.9178 19.617 22.9286 19.593 22.93 19.5675C22.9291 19.5421 22.9191 19.5178 22.9019 19.4992C22.8846 19.4806 22.8611 19.4689 22.8357 19.4663Z" fill="white"/>
<path d="M32.713 9.35282C32.7263 9.35347 32.7395 9.35141 32.7521 9.34686C32.7645 9.34231 32.776 9.33527 32.7858 9.32628C32.7955 9.3173 32.8033 9.30636 32.8088 9.29423C32.8143 9.2821 32.8173 9.26899 32.8177 9.25567C32.818 9.24235 32.8156 9.22914 32.8108 9.21679C32.806 9.20444 32.7988 9.19318 32.7894 9.18365C32.7802 9.17401 32.7691 9.16643 32.7568 9.16123C32.7446 9.15614 32.7315 9.15343 32.7182 9.15332C32.6926 9.15408 32.6682 9.16459 32.6503 9.18268C32.6322 9.20076 32.6218 9.22513 32.6211 9.25058C32.6205 9.27625 32.6296 9.30105 32.6467 9.32C32.6638 9.33906 32.6875 9.35076 32.713 9.35282Z" fill="white"/>
<path d="M24.0279 20.61C24.0143 20.6094 24.0006 20.6115 23.9879 20.6163C23.975 20.6211 23.9633 20.6284 23.9534 20.6379C23.9435 20.6473 23.9356 20.6585 23.9301 20.6711C23.9248 20.6836 23.922 20.6972 23.9219 20.7109C23.9242 20.7363 23.9353 20.7601 23.9535 20.778C23.9717 20.796 23.9957 20.8068 24.0211 20.8086C24.0467 20.8076 24.0709 20.7971 24.0891 20.7792C24.1073 20.7612 24.1182 20.7372 24.1197 20.7116C24.1208 20.686 24.1118 20.661 24.0945 20.6421C24.0774 20.6231 24.0535 20.6115 24.0279 20.61Z" fill="white"/>
<path d="M31.802 8.75387C31.8274 8.75159 31.8509 8.7399 31.868 8.72105C31.8851 8.70232 31.8946 8.67773 31.8945 8.65228C31.8929 8.62672 31.8816 8.60279 31.8628 8.58535C31.844 8.56791 31.8194 8.55838 31.7937 8.5586C31.768 8.55903 31.7435 8.56921 31.7252 8.58708C31.7069 8.60506 31.6963 8.62932 31.6953 8.65488C31.6956 8.66853 31.6986 8.68185 31.7042 8.6943C31.7096 8.70665 31.7177 8.7178 31.7276 8.72712C31.7376 8.73632 31.7493 8.74347 31.7621 8.74802C31.7748 8.75268 31.7885 8.75463 31.802 8.75387Z" fill="white"/>
<path d="M26.4808 21.8263C26.4553 21.8249 26.4303 21.8332 26.4107 21.8496C26.3911 21.8658 26.3784 21.8889 26.3751 21.9142C26.3742 21.9417 26.3841 21.9685 26.4028 21.9887C26.4214 22.0089 26.4473 22.0209 26.4748 22.0221C26.5003 22.0208 26.5243 22.0104 26.5427 21.9927C26.5611 21.9752 26.5726 21.9516 26.5751 21.9262C26.575 21.9007 26.5651 21.8761 26.5477 21.8576C26.5302 21.8391 26.5062 21.8278 26.4808 21.8263Z" fill="white"/>
<path d="M21.1811 15.0953C21.207 15.0954 21.2322 15.0855 21.2509 15.0675C21.2698 15.0494 21.2808 15.0248 21.2818 14.9987C21.2827 14.9727 21.2735 14.9474 21.2561 14.928C21.2387 14.9086 21.2144 14.8968 21.1885 14.895C21.1633 14.8948 21.1389 14.9038 21.1201 14.9204C21.1011 14.9369 21.0891 14.96 21.0861 14.985C21.0847 15.0121 21.0936 15.0386 21.1113 15.0593C21.1291 15.0799 21.154 15.0927 21.1811 15.0953Z" fill="white"/>
<path d="M30.2714 8.14026C30.2968 8.13809 30.3206 8.12661 30.3383 8.10809C30.3558 8.08957 30.366 8.06531 30.3669 8.03986C30.3644 8.01452 30.3529 7.9908 30.3345 7.97315C30.3161 7.95539 30.292 7.94488 30.2666 7.94336C30.2529 7.94347 30.2395 7.9464 30.227 7.95203C30.2145 7.95755 30.2033 7.96567 30.1941 7.97564C30.1849 7.98571 30.1779 7.99762 30.1734 8.01051C30.169 8.0234 30.1672 8.03705 30.1682 8.05069C30.1702 8.07614 30.1822 8.09986 30.2015 8.11665C30.2208 8.13333 30.2459 8.14178 30.2714 8.14026Z" fill="white"/>
<path d="M27.5413 7.93922C27.5668 7.93716 27.5907 7.92535 27.6077 7.90608C27.6247 7.88691 27.6336 7.862 27.6326 7.83633C27.6317 7.81066 27.6208 7.78651 27.6021 7.76886C27.5835 7.7512 27.5587 7.74167 27.5331 7.74221C27.5076 7.74351 27.4834 7.75391 27.4652 7.77167C27.4468 7.78933 27.4357 7.81315 27.4336 7.8386C27.435 7.866 27.447 7.89189 27.4671 7.91073C27.4872 7.92947 27.5138 7.93976 27.5413 7.93922Z" fill="white"/>
<path d="M28.0839 7.89855C28.1089 7.89617 28.1323 7.88534 28.1502 7.86779C28.1681 7.85025 28.1794 7.82696 28.1822 7.80205C28.1823 7.77487 28.1717 7.74866 28.1526 7.72938C28.1335 7.70999 28.1075 7.69906 28.0803 7.69873C28.0552 7.69906 28.0311 7.70913 28.0132 7.72678C27.9953 7.74454 27.985 7.76848 27.9845 7.7936C27.9838 7.80714 27.9859 7.82057 27.9906 7.83324C27.9953 7.84591 28.0026 7.8575 28.0119 7.86725C28.0212 7.87711 28.0323 7.8849 28.0447 7.89021C28.057 7.89563 28.0705 7.89844 28.0839 7.89855Z" fill="white"/>
<path d="M35.2312 12.8942C35.2566 12.8923 35.2805 12.8807 35.2977 12.8619C35.3149 12.843 35.3243 12.8183 35.3239 12.7928C35.3235 12.7672 35.3133 12.7429 35.2955 12.7246C35.2777 12.7062 35.2536 12.6954 35.228 12.6943C35.2144 12.6948 35.2011 12.698 35.1886 12.7038C35.1763 12.7094 35.1652 12.7175 35.156 12.7276C35.1467 12.7377 35.1397 12.7494 35.135 12.7621C35.1303 12.775 35.1284 12.7887 35.129 12.8022C35.1313 12.8277 35.1431 12.8512 35.1621 12.8683C35.1809 12.8854 35.2056 12.8946 35.2312 12.8942Z" fill="white"/>
<path d="M35.2292 17.0537C35.2039 17.0545 35.1799 17.0649 35.162 17.0827C35.1442 17.1005 35.1338 17.1244 35.1329 17.1497C35.1321 17.1748 35.1406 17.1993 35.1568 17.2185C35.1731 17.2377 35.1959 17.2502 35.2208 17.2534C35.248 17.2553 35.2748 17.2463 35.2952 17.2284C35.3158 17.2105 35.3284 17.1854 35.3303 17.1582C35.3303 17.1311 35.3198 17.105 35.3009 17.0856C35.282 17.0661 35.2562 17.0547 35.2292 17.0537Z" fill="white"/>
<path d="M35.0318 12.3764C35.0455 12.3771 35.059 12.375 35.0717 12.3703C35.0845 12.3655 35.096 12.3582 35.1059 12.3488C35.1158 12.3394 35.1236 12.328 35.1288 12.3156C35.1342 12.303 35.1368 12.2896 35.1367 12.2759C35.137 12.2503 35.127 12.2255 35.1092 12.2071C35.0913 12.1885 35.0668 12.1778 35.0411 12.1773C35.0155 12.1767 34.9906 12.1864 34.9719 12.204C34.9532 12.2217 34.9423 12.246 34.9414 12.2717C34.941 12.2973 34.9499 12.322 34.9666 12.3413C34.9833 12.3606 35.0065 12.3731 35.0318 12.3764Z" fill="white"/>
<path d="M33.1512 9.70378C33.1764 9.70043 33.1995 9.68786 33.2161 9.66859C33.2326 9.64931 33.2416 9.62451 33.241 9.59916C33.2405 9.5736 33.2298 9.54924 33.2115 9.53158C33.1931 9.51382 33.1684 9.50407 33.1428 9.5044C33.1174 9.50537 33.0933 9.51588 33.0755 9.53397C33.0577 9.55205 33.0474 9.57631 33.0469 9.60176C33.0466 9.61541 33.0492 9.62895 33.0544 9.64162C33.0596 9.65418 33.0673 9.66555 33.0771 9.67508C33.0869 9.68472 33.0984 9.6922 33.1112 9.69707C33.124 9.70194 33.1375 9.70422 33.1512 9.70378Z" fill="white"/>
<path d="M34.244 10.929C34.2694 10.9296 34.2942 10.9202 34.3127 10.9028C34.3312 10.8853 34.3423 10.8613 34.3432 10.8358C34.3451 10.8101 34.3367 10.7847 34.3199 10.7651C34.3031 10.7456 34.2792 10.7336 34.2535 10.7317C34.2278 10.7298 34.2024 10.7382 34.1829 10.7549C34.1633 10.7718 34.1512 10.7957 34.1493 10.8213C34.1475 10.8349 34.1484 10.8486 34.1523 10.8616C34.1562 10.8747 34.1628 10.8867 34.1718 10.8969C34.1808 10.9072 34.192 10.9153 34.2044 10.9209C34.2169 10.9264 34.2303 10.9292 34.244 10.929Z" fill="white"/>
<path d="M22.8158 10.515C22.835 10.5151 22.8539 10.5094 22.87 10.4988C22.8862 10.4882 22.8988 10.473 22.9062 10.4553C22.9137 10.4375 22.9157 10.4179 22.9122 10.3991C22.9085 10.3801 22.8994 10.3627 22.8858 10.3489C22.8723 10.3352 22.855 10.3258 22.8361 10.3219C22.8173 10.318 22.7978 10.3197 22.7799 10.3268C22.762 10.3341 22.7466 10.3464 22.7356 10.3624C22.7248 10.3783 22.7189 10.397 22.7188 10.4164C22.72 10.4419 22.7304 10.466 22.7484 10.4842C22.7663 10.5024 22.7903 10.5133 22.8158 10.515Z" fill="white"/>
<path d="M33.5404 10.0827C33.566 10.0835 33.5909 10.0741 33.6095 10.0567C33.6283 10.0392 33.6392 10.0149 33.6401 9.98938C33.6408 9.96383 33.6322 9.93892 33.6156 9.91942C33.5991 9.89993 33.576 9.88726 33.5506 9.8839C33.537 9.88325 33.5233 9.88541 33.5105 9.89018C33.4978 9.89494 33.4862 9.90242 33.4762 9.91184C33.4664 9.92126 33.4587 9.93263 33.4533 9.9452C33.4479 9.95776 33.4452 9.9713 33.4453 9.98494C33.445 9.99762 33.4474 10.0102 33.452 10.0221C33.4566 10.0339 33.4635 10.0446 33.4724 10.0537C33.4813 10.0628 33.4919 10.07 33.5035 10.075C33.5152 10.08 33.5278 10.0826 33.5404 10.0827Z" fill="white"/>
<path d="M33.9111 10.4917C33.9365 10.4917 33.961 10.4816 33.9791 10.4637C33.9972 10.4457 34.0074 10.4213 34.0075 10.3957C34.0081 10.3832 34.0062 10.3704 34.0017 10.3586C33.9974 10.3467 33.9907 10.3359 33.9819 10.3265C33.9733 10.3174 33.9627 10.3101 33.9512 10.305C33.9395 10.3 33.9269 10.2973 33.9142 10.2973C33.901 10.2961 33.8876 10.2977 33.8749 10.302C33.8622 10.3063 33.8507 10.3131 33.8407 10.3221C33.8308 10.331 33.8228 10.3419 33.8173 10.3541C33.8118 10.3663 33.8087 10.3794 33.8086 10.3928C33.8084 10.4061 33.8109 10.4195 33.816 10.4318C33.8211 10.444 33.8288 10.4552 33.8383 10.4645C33.8479 10.4737 33.8594 10.481 33.8719 10.4856C33.8844 10.4903 33.8978 10.4925 33.9111 10.4917Z" fill="white"/>
<path d="M34.8199 18.0781C34.7943 18.0779 34.7696 18.0874 34.7509 18.1047C34.7322 18.1219 34.7207 18.1459 34.7188 18.1713C34.7188 18.185 34.7215 18.1983 34.7268 18.2109C34.7321 18.2234 34.7399 18.2347 34.7497 18.2441C34.7595 18.2536 34.7711 18.261 34.7836 18.2659C34.7964 18.2708 34.8099 18.273 34.8236 18.2726C34.8491 18.2717 34.8733 18.2609 34.8909 18.2424C34.9086 18.2239 34.918 18.1992 34.9176 18.1736C34.9166 18.1482 34.9061 18.124 34.8879 18.1062C34.8697 18.0885 34.8453 18.0784 34.8199 18.0781Z" fill="white"/>
<path d="M30.7986 8.30484C30.8114 8.3043 30.824 8.30127 30.8355 8.29585C30.8471 8.29044 30.8575 8.28286 30.8662 8.27344C30.8749 8.2639 30.8815 8.25297 30.8859 8.24094C30.8902 8.22892 30.8922 8.21614 30.8916 8.20336C30.8911 8.19058 30.8881 8.17802 30.8827 8.16654C30.8772 8.15495 30.8696 8.14445 30.8601 8.13589C30.8507 8.12723 30.8397 8.12051 30.8276 8.11618C30.8157 8.11174 30.803 8.1099 30.7902 8.11044C30.7647 8.11141 30.7407 8.12192 30.7224 8.13968C30.7042 8.15733 30.6931 8.18127 30.6914 8.20661C30.6915 8.22026 30.6944 8.23369 30.7 8.24625C30.7055 8.25871 30.7136 8.26986 30.7237 8.27907C30.7337 8.28827 30.7455 8.29531 30.7584 8.29975C30.7714 8.30419 30.7851 8.30593 30.7986 8.30484Z" fill="white"/>
<path d="M26.4527 8.15194C26.4661 8.15194 26.4794 8.14934 26.4919 8.14414C26.5043 8.13894 26.5156 8.13147 26.5251 8.12194C26.5347 8.11241 26.5422 8.10104 26.5473 8.08869C26.5524 8.07613 26.5551 8.06291 26.5551 8.04938C26.5545 8.02425 26.5443 8.00032 26.5265 7.98266C26.5087 7.9649 26.4848 7.95472 26.4597 7.95418C26.4462 7.95364 26.4329 7.9558 26.4202 7.96057C26.4076 7.96544 26.3961 7.9727 26.3864 7.98201C26.3766 7.99133 26.369 8.00248 26.3636 8.01494C26.3583 8.02728 26.3556 8.0406 26.3555 8.05403C26.3583 8.07894 26.3694 8.10223 26.387 8.11988C26.4047 8.13775 26.4278 8.14902 26.4527 8.15194Z" fill="white"/>
<path d="M35.376 16.5244C35.3569 16.525 35.3382 16.5312 35.3225 16.5423C35.3068 16.5534 35.2947 16.5689 35.2878 16.5868C35.281 16.6048 35.2794 16.6244 35.2836 16.6432C35.2878 16.662 35.2974 16.6791 35.3114 16.6924C35.3253 16.7057 35.3428 16.7146 35.3618 16.718C35.3807 16.7213 35.4002 16.719 35.4177 16.7112C35.4355 16.7035 35.4505 16.6909 35.4608 16.6746C35.4712 16.6585 35.4766 16.6395 35.4763 16.6204C35.4743 16.5949 35.4629 16.571 35.4444 16.5533C35.426 16.5357 35.4016 16.5254 35.376 16.5244Z" fill="white"/>
<path d="M30.278 21.8224C30.2528 21.8242 30.2291 21.8357 30.2123 21.8547C30.1953 21.8736 30.1865 21.8984 30.1876 21.9238C30.1876 21.9364 30.1901 21.9488 30.195 21.9604C30.2 21.972 30.2072 21.9825 30.2163 21.9913C30.2254 21.9999 30.2361 22.0068 30.2478 22.0112C30.2596 22.0157 30.2721 22.0178 30.2847 22.0173C30.3102 22.0174 30.3345 22.0075 30.3527 21.9897C30.3709 21.972 30.3814 21.9479 30.3821 21.9225C30.3823 21.909 30.3797 21.8955 30.3745 21.8831C30.3694 21.8705 30.3616 21.8592 30.3519 21.8498C30.3421 21.8404 30.3304 21.8331 30.3177 21.8285C30.3051 21.8237 30.2915 21.8217 30.278 21.8224Z" fill="white"/>
<path d="M23.1878 19.8795C23.1748 19.8805 23.1621 19.8839 23.1504 19.89C23.1389 19.896 23.1286 19.9042 23.1202 19.9142C23.1118 19.9242 23.1056 19.9358 23.1018 19.9484C23.098 19.9608 23.0968 19.9739 23.0982 19.9869C23.0997 19.9999 23.1037 20.0125 23.11 20.0239C23.1163 20.0352 23.125 20.0453 23.1353 20.0533C23.1456 20.0612 23.1574 20.0672 23.17 20.0704C23.1827 20.0738 23.1958 20.0746 23.2088 20.0726C23.2216 20.0713 23.2339 20.0675 23.2451 20.0615C23.2564 20.0554 23.2663 20.0471 23.2743 20.0371C23.2825 20.0271 23.2884 20.0158 23.292 20.0034C23.2957 19.9912 23.2969 19.9783 23.2955 19.9655C23.2941 19.9528 23.2902 19.9405 23.284 19.9292C23.2778 19.9181 23.2695 19.9081 23.2595 19.9001C23.2494 19.8922 23.2381 19.8862 23.2257 19.8826C23.2134 19.8792 23.2005 19.8781 23.1878 19.8795Z" fill="white"/>
<path d="M27.5549 22.0322C27.5294 22.0337 27.5054 22.0445 27.4874 22.0626C27.4693 22.0807 27.4586 22.1048 27.4571 22.1302C27.4567 22.1501 27.4624 22.1695 27.4733 22.1862C27.484 22.2029 27.4996 22.2159 27.5179 22.2236C27.5362 22.2313 27.5564 22.2333 27.5758 22.2295C27.5953 22.2257 27.6132 22.2162 27.6272 22.2021C27.6412 22.188 27.6507 22.1702 27.6545 22.1507C27.6582 22.1312 27.6561 22.111 27.6483 22.0927C27.6405 22.0745 27.6275 22.0589 27.6108 22.0482C27.5942 22.0374 27.5747 22.0319 27.5549 22.0322Z" fill="white"/>
<path d="M33.1623 20.2565C33.1366 20.2553 33.1116 20.2639 33.0922 20.2807C33.073 20.2975 33.0608 20.3212 33.0586 20.3468C33.0582 20.3603 33.0607 20.3739 33.0658 20.3866C33.0708 20.3992 33.0784 20.4108 33.0879 20.4204C33.0975 20.4301 33.109 20.4378 33.1216 20.443C33.1342 20.4482 33.1477 20.4508 33.1613 20.4506C33.1869 20.4503 33.2113 20.4399 33.2292 20.4216C33.2472 20.4034 33.2573 20.3788 33.2572 20.3533C33.2576 20.3406 33.2555 20.3279 33.2509 20.3161C33.2462 20.3044 33.2393 20.2936 33.2304 20.2846C33.2216 20.2755 33.2109 20.2684 33.1992 20.2635C33.1875 20.2587 33.1749 20.2563 33.1623 20.2565Z" fill="white"/>
<path d="M28.1081 22.0708C28.0945 22.0708 28.081 22.0736 28.0684 22.0791C28.0559 22.0846 28.0447 22.0925 28.0352 22.1024C28.0259 22.1124 28.0187 22.1241 28.0139 22.137C28.0092 22.1498 28.0072 22.1634 28.0079 22.177C28.0095 22.2024 28.0208 22.2262 28.0396 22.2433C28.0583 22.2604 28.083 22.2695 28.1084 22.2688C28.1338 22.268 28.1579 22.2574 28.1756 22.2391C28.1932 22.2209 28.2031 22.1965 28.2031 22.1711C28.2023 22.1456 28.1923 22.1213 28.1748 22.1029C28.1573 22.0843 28.1336 22.0729 28.1081 22.0708Z" fill="white"/>
<path d="M32.7314 20.6062C32.7059 20.6075 32.6818 20.6185 32.6643 20.637C32.6466 20.6554 32.6368 20.68 32.6367 20.7056C32.6383 20.731 32.6492 20.7548 32.6676 20.7726C32.6858 20.7904 32.7101 20.8007 32.7355 20.8014C32.7611 20.8012 32.7856 20.7913 32.8041 20.7737C32.8226 20.7561 32.8338 20.7322 32.8353 20.7068C32.8358 20.6931 32.8333 20.6795 32.8282 20.6669C32.8232 20.6542 32.8155 20.6429 32.8057 20.6333C32.796 20.6239 32.7843 20.6165 32.7715 20.6119C32.7586 20.6072 32.7451 20.6053 32.7314 20.6062Z" fill="white"/>
<path d="M24.4801 20.9244C24.4664 20.9238 24.4528 20.9258 24.44 20.9306C24.4272 20.9354 24.4155 20.9427 24.4057 20.9522C24.3958 20.9617 24.388 20.9731 24.3828 20.9856C24.3775 20.9982 24.375 21.0118 24.3751 21.0255C24.3746 21.038 24.3765 21.0508 24.381 21.0626C24.3854 21.0745 24.3922 21.0854 24.4011 21.0946C24.4099 21.1037 24.4204 21.1109 24.4321 21.1159C24.4438 21.1209 24.4564 21.1235 24.469 21.1234C24.4817 21.1238 24.4943 21.1219 24.5062 21.1174C24.5181 21.113 24.529 21.1063 24.5382 21.0975C24.5475 21.0889 24.5549 21.0784 24.5602 21.067C24.5654 21.0554 24.5682 21.0429 24.5686 21.0301C24.5696 21.0047 24.5611 20.9797 24.5447 20.9602C24.5284 20.9407 24.5053 20.9279 24.4801 20.9244Z" fill="white"/>
<path d="M23.5861 9.72329C23.6115 9.72112 23.6353 9.70943 23.6525 9.69058C23.6697 9.67185 23.6793 9.64726 23.6793 9.6217C23.6792 9.60806 23.6762 9.59463 23.6707 9.58217C23.665 9.56972 23.6568 9.55867 23.6467 9.54957C23.6366 9.54048 23.6246 9.53354 23.6116 9.52932C23.5988 9.52499 23.585 9.52358 23.5715 9.52488C23.5588 9.52596 23.5464 9.52954 23.5353 9.53549C23.5241 9.54145 23.5142 9.54946 23.5062 9.55932C23.498 9.56907 23.492 9.58044 23.4884 9.59257C23.4847 9.6047 23.4836 9.61748 23.485 9.63004C23.487 9.65549 23.4985 9.67921 23.5172 9.69654C23.536 9.71376 23.5606 9.7234 23.5861 9.72329Z" fill="white"/>
<path d="M21.1979 14.5416C21.2113 14.5429 21.2248 14.5415 21.2376 14.5372C21.2504 14.533 21.2622 14.5263 21.2722 14.5173C21.2823 14.5083 21.2903 14.4974 21.2959 14.4851C21.3015 14.4728 21.3044 14.4596 21.3046 14.4462C21.3055 14.4209 21.2965 14.3963 21.2794 14.3777C21.2623 14.3592 21.2386 14.348 21.2133 14.3468C21.1863 14.3453 21.1598 14.3545 21.1396 14.3725C21.1193 14.3905 21.1071 14.4157 21.1055 14.4428C21.1057 14.4678 21.1152 14.4919 21.1324 14.5102C21.1495 14.5285 21.1729 14.5397 21.1979 14.5416Z" fill="white"/>
<path d="M32.2744 9.03396C32.2871 9.03363 32.2996 9.03071 32.3112 9.0254C32.3227 9.02009 32.333 9.01262 32.3417 9.00331C32.3504 8.99388 32.357 8.98305 32.3613 8.97103C32.3657 8.95912 32.3676 8.94645 32.3669 8.93377C32.3663 8.90821 32.3556 8.88385 32.3371 8.86608C32.3186 8.84832 32.2939 8.83858 32.2683 8.8389C32.2549 8.83858 32.2417 8.84096 32.2294 8.84583C32.217 8.85081 32.2059 8.85829 32.1965 8.8676C32.187 8.87713 32.1797 8.88829 32.1748 8.90074C32.1699 8.91309 32.1677 8.92641 32.168 8.93973C32.1684 8.95294 32.1716 8.96605 32.1772 8.97807C32.1829 8.9902 32.1909 9.00092 32.2009 9.0098C32.2109 9.01858 32.2225 9.02529 32.2351 9.02951C32.2478 9.03363 32.2611 9.03515 32.2744 9.03396Z" fill="white"/>
<path d="M35.48 15.9805C35.4546 15.9816 35.4304 15.9923 35.4124 16.0104C35.3945 16.0285 35.3838 16.0526 35.3829 16.0781C35.3817 16.1037 35.3907 16.1286 35.4079 16.1475C35.425 16.1664 35.449 16.1777 35.4745 16.179C35.4881 16.1801 35.5019 16.1783 35.5147 16.1736C35.5276 16.169 35.5393 16.1616 35.549 16.1521C35.5589 16.1425 35.5664 16.1309 35.5714 16.1183C35.5763 16.1055 35.5786 16.0918 35.5777 16.0782C35.5763 16.0528 35.5655 16.0288 35.5474 16.0107C35.5294 15.9928 35.5054 15.982 35.48 15.9805Z" fill="white"/>
<path d="M31.3262 21.45C31.3126 21.449 31.2989 21.451 31.286 21.4556C31.2733 21.4604 31.2616 21.4678 31.2518 21.4773C31.2421 21.4868 31.2344 21.4984 31.2294 21.5111C31.2244 21.5237 31.2221 21.5374 31.2228 21.551C31.2239 21.5766 31.2349 21.6009 31.2534 21.6184C31.2721 21.6361 31.2969 21.6457 31.3224 21.6453C31.3483 21.6458 31.3734 21.636 31.3921 21.618C31.4107 21.6001 31.4214 21.5754 31.422 21.5495C31.4225 21.5236 31.4126 21.4986 31.3948 21.4799C31.3768 21.4613 31.3521 21.4505 31.3262 21.45Z" fill="white"/>
<path d="M21.4718 16.6288C21.4709 16.6033 21.4601 16.5793 21.4418 16.5616C21.4234 16.5441 21.3989 16.5345 21.3735 16.5347C21.348 16.535 21.3237 16.5452 21.3058 16.5632C21.2878 16.5811 21.2776 16.6055 21.2773 16.631C21.2774 16.6445 21.2802 16.6579 21.2856 16.6705C21.2909 16.683 21.2987 16.6943 21.3085 16.7038C21.3182 16.7133 21.3298 16.7207 21.3424 16.7257C21.355 16.7306 21.3686 16.7331 21.3822 16.7328C21.4077 16.7305 21.4314 16.7184 21.4481 16.699C21.4648 16.6795 21.4733 16.6543 21.4718 16.6288Z" fill="white"/>
<path d="M21.304 15.5427C21.3034 15.5171 21.2929 15.4927 21.2747 15.4749C21.2564 15.457 21.2319 15.4468 21.2062 15.4468C21.1927 15.4471 21.1792 15.4501 21.1669 15.4556C21.1544 15.4611 21.1432 15.469 21.1339 15.4788C21.1246 15.4886 21.1171 15.5002 21.1123 15.5129C21.1074 15.5257 21.1052 15.5391 21.1055 15.5527C21.1085 15.5781 21.1211 15.6014 21.1407 15.6178C21.1603 15.6342 21.1854 15.6426 21.211 15.6412C21.2235 15.6411 21.2361 15.6385 21.2477 15.6334C21.2594 15.6283 21.2698 15.6211 21.2786 15.6118C21.2872 15.6027 21.2939 15.5917 21.2983 15.5798C21.3027 15.568 21.3047 15.5553 21.304 15.5427Z" fill="white"/>
<path d="M21.5256 17.0662C21.5118 17.0652 21.4982 17.067 21.4853 17.0717C21.4725 17.0764 21.4608 17.0838 21.4509 17.0934C21.4412 17.1029 21.4336 17.1144 21.4285 17.1271C21.4235 17.1398 21.4214 17.1536 21.422 17.1672C21.4222 17.1799 21.4248 17.1925 21.4299 17.204C21.4349 17.2157 21.4423 17.2262 21.4515 17.235C21.4606 17.2438 21.4714 17.2506 21.4833 17.2552C21.4952 17.2596 21.5078 17.2618 21.5206 17.2612C21.5461 17.2617 21.5709 17.2519 21.5895 17.2343C21.6079 17.2165 21.6186 17.1921 21.6192 17.1666C21.6198 17.1409 21.6104 17.1161 21.5928 17.0974C21.5753 17.0785 21.5511 17.0674 21.5256 17.0662Z" fill="white"/>
<path d="M22.4934 19.0294C22.4681 19.0314 22.4445 19.0431 22.4275 19.062C22.4105 19.081 22.4015 19.1058 22.4024 19.1312C22.4025 19.1439 22.4051 19.1564 22.4102 19.1679C22.4151 19.1795 22.4224 19.19 22.4314 19.1988C22.4405 19.2076 22.4512 19.2144 22.4629 19.2191C22.4747 19.2237 22.4873 19.2259 22.4998 19.2256C22.5125 19.226 22.5251 19.2238 22.5369 19.2193C22.5487 19.2147 22.5594 19.2078 22.5684 19.1989C22.5775 19.1901 22.5846 19.1795 22.5894 19.1678C22.5943 19.1561 22.5967 19.1436 22.5966 19.131C22.597 19.1174 22.5945 19.1039 22.5894 19.0914C22.5843 19.0788 22.5767 19.0673 22.567 19.0578C22.5573 19.0483 22.5459 19.0409 22.5332 19.036C22.5206 19.0312 22.507 19.0289 22.4934 19.0294Z" fill="white"/>
<path d="M21.7105 17.5853C21.698 17.5842 21.6853 17.5856 21.6733 17.5896C21.6614 17.5935 21.6502 17.5999 21.6408 17.6083C21.6314 17.6166 21.6238 17.6269 21.6184 17.6384C21.613 17.6498 21.61 17.6621 21.6097 17.6748C21.6082 17.6942 21.6124 17.7135 21.6219 17.7304C21.6315 17.7473 21.6459 17.761 21.6633 17.7698C21.6806 17.7784 21.7002 17.7817 21.7194 17.7792C21.7388 17.7766 21.7568 17.7683 21.7713 17.7555C21.7858 17.7426 21.7962 17.7256 21.801 17.7068C21.8058 17.688 21.8049 17.6682 21.7984 17.6499C21.7919 17.6316 21.78 17.6156 21.7644 17.6042C21.7487 17.5927 21.7299 17.5862 21.7105 17.5853Z" fill="white"/>
<path d="M34.8202 11.8728C34.8456 11.8705 34.8692 11.8588 34.8865 11.84C34.9038 11.8212 34.9135 11.7967 34.9139 11.7713C34.912 11.7457 34.9005 11.7219 34.8816 11.7046C34.8628 11.6873 34.8379 11.6779 34.8124 11.6783C34.7996 11.6778 34.787 11.68 34.7751 11.6845C34.7633 11.6891 34.7525 11.696 34.7434 11.7049C34.7343 11.7138 34.727 11.7244 34.7222 11.7361C34.7173 11.7478 34.7148 11.7603 34.7149 11.7731C34.7146 11.7868 34.7172 11.8003 34.7224 11.813C34.7277 11.8255 34.7355 11.8369 34.7455 11.8463C34.7553 11.8557 34.7671 11.8629 34.78 11.8674C34.7929 11.872 34.8066 11.8738 34.8202 11.8728Z" fill="white"/>
<path d="M21.5124 12.9218C21.5259 12.9227 21.5394 12.9206 21.5522 12.9158C21.5649 12.9109 21.5764 12.9033 21.5859 12.8936C21.5954 12.8839 21.6028 12.8722 21.6074 12.8594C21.6119 12.8467 21.6137 12.833 21.6127 12.8195C21.6115 12.7941 21.6003 12.7702 21.5816 12.7531C21.5629 12.7359 21.5381 12.7268 21.5128 12.7276C21.5002 12.7276 21.4877 12.7301 21.4761 12.7351C21.4645 12.74 21.454 12.7471 21.4451 12.7561C21.4362 12.7651 21.4294 12.7758 21.4248 12.7875C21.4201 12.7992 21.4178 12.8118 21.418 12.8245C21.4177 12.8498 21.4276 12.8743 21.4451 12.8925C21.4629 12.9108 21.487 12.9213 21.5124 12.9218Z" fill="white"/>
<path d="M22.1945 18.57C22.1819 18.57 22.1696 18.5726 22.158 18.5774C22.1465 18.5823 22.136 18.5896 22.1273 18.5987C22.1187 18.6078 22.1118 18.6185 22.1075 18.6303C22.1031 18.6421 22.1011 18.6545 22.1016 18.6671C22.1016 18.68 22.1042 18.6929 22.1093 18.7049C22.1144 18.7168 22.1219 18.7275 22.1312 18.7365C22.1405 18.7455 22.1517 18.7527 22.1638 18.7572C22.1758 18.7619 22.1888 18.764 22.2017 18.7635C22.2147 18.7631 22.2275 18.76 22.2392 18.7545C22.251 18.749 22.2615 18.7412 22.2702 18.7315C22.2788 18.7219 22.2855 18.7106 22.2897 18.6984C22.294 18.6861 22.2956 18.6731 22.2948 18.6602C22.2942 18.6476 22.2912 18.6353 22.2858 18.6239C22.2805 18.6125 22.2729 18.6023 22.2636 18.594C22.2542 18.5855 22.2433 18.5792 22.2315 18.575C22.2196 18.5709 22.207 18.5692 22.1945 18.57Z" fill="white"/>
<path d="M25.9499 21.6592C25.9363 21.659 25.9229 21.6616 25.9105 21.6669C25.898 21.6723 25.8867 21.6801 25.8774 21.6901C25.8682 21.7 25.8612 21.7118 25.8567 21.7245C25.8523 21.7374 25.8507 21.7511 25.8519 21.7645C25.8524 21.7771 25.8555 21.7894 25.861 21.8008C25.8664 21.8122 25.874 21.8223 25.8835 21.8307C25.8929 21.839 25.9038 21.8453 25.9159 21.8493C25.9278 21.8533 25.9403 21.8548 25.9529 21.8539C25.9783 21.853 26.0023 21.8422 26.0197 21.8236C26.0373 21.8053 26.0467 21.7808 26.0462 21.7553C26.0456 21.73 26.0353 21.7058 26.0175 21.6878C25.9995 21.67 25.9753 21.6597 25.9499 21.6592Z" fill="white"/>
<path d="M29.1904 7.93482C29.2156 7.93254 29.239 7.92085 29.2558 7.90189C29.2727 7.88294 29.2816 7.85825 29.2808 7.83301C29.2796 7.80767 29.2686 7.78373 29.2501 7.7663C29.2317 7.74897 29.2072 7.73944 29.1818 7.73976C29.1692 7.73955 29.1567 7.74204 29.1451 7.74669C29.1334 7.75146 29.1228 7.7585 29.1139 7.76738C29.1049 7.77626 29.0979 7.78688 29.0931 7.79846C29.0882 7.81016 29.0859 7.82262 29.086 7.83529C29.0856 7.84883 29.0883 7.86225 29.0935 7.87471C29.0987 7.88727 29.1065 7.89854 29.1163 7.90785C29.1261 7.91727 29.1377 7.92453 29.1505 7.92908C29.1633 7.93373 29.1768 7.93568 29.1904 7.93482Z" fill="white"/>
<path d="M29.2065 22.0318C29.1811 22.0309 29.1563 22.04 29.1375 22.057C29.1187 22.0741 29.1073 22.098 29.1057 22.1233C29.1045 22.1427 29.1091 22.1621 29.1189 22.1789C29.1288 22.1958 29.1434 22.2092 29.1609 22.2178C29.1785 22.2262 29.1982 22.2291 29.2175 22.2263C29.2366 22.2235 29.2546 22.215 29.2691 22.2019C29.2835 22.1888 29.2937 22.1717 29.2984 22.1529C29.3029 22.1339 29.3018 22.114 29.2951 22.0957C29.2884 22.0775 29.2764 22.0616 29.2606 22.0502C29.2448 22.0388 29.2259 22.0323 29.2065 22.0318Z" fill="white"/>
<path d="M8.15649 20.4952C8.98263 18.9147 9.88436 17.3567 10.6258 15.726C11.4422 13.9305 10.4211 12.0678 8.52169 11.6665C6.77053 11.2966 5.15844 12.4987 4.94476 14.3336C4.75598 15.9547 5.99638 17.3224 7.738 17.4079C7.99902 17.4206 8.26133 17.4096 8.62393 17.4096L6.82024 20.495L8.15649 20.4952ZM8.02154 16.4449C6.85826 16.4604 6.01198 15.6618 6.00494 14.5419C5.998 13.4129 6.83811 12.5787 7.97237 12.5886C9.0605 12.5981 9.8419 13.3921 9.85317 14.4996C9.86465 15.6237 9.10512 16.4305 8.02154 16.4449Z" fill="white"/>
<path d="M2.83657 11.7104C2.2239 11.996 1.79546 12.1799 1.38185 12.3928C0.922636 12.6289 0.477076 12.8917 0 13.1571C0.0164621 13.5034 0.0310831 13.811 0.0486282 14.1842L1.66387 13.3916V19.6077H0.924152V20.4771H3.60087V19.6077H2.863C2.863 19.6077 2.8669 16.8501 2.86181 15.6051C2.85683 14.376 2.88466 13.1451 2.83657 11.7104Z" fill="white"/>
<path d="M12.2582 8.5542H0.046875V9.14596H12.2582V8.5542Z" fill="white"/>
<path d="M12.2582 22.9927H0.046875V23.5844H12.2582V22.9927Z" fill="white"/>
<path d="M59.0781 8.5542H45.1523V9.14596H59.0781V8.5542Z" fill="white"/>
<path d="M59.0781 22.9927H45.1523V23.5844H59.0781V22.9927Z" fill="white"/>
<path d="M45.9961 18.1331C45.9957 18.5905 46.1151 19.0401 46.3427 19.4369C46.5703 19.8337 46.8981 20.1639 47.2932 20.3944C47.6882 20.625 48.1368 20.7478 48.5943 20.7507C49.0517 20.7536 49.5019 20.6366 49.8999 20.411C50.2979 20.1855 50.6298 19.8595 50.8623 19.4656C51.0949 19.0718 51.2202 18.6237 51.2254 18.1664C51.2308 17.7089 51.1159 17.2581 50.8926 16.8589C50.6692 16.4598 50.3449 16.1262 49.9523 15.8916C50.3603 15.6062 50.6667 15.1982 50.827 14.7268C50.9873 14.2554 50.993 13.7452 50.8434 13.2702C50.6939 12.7953 50.3967 12.3805 49.9952 12.086C49.5937 11.7915 49.1089 11.6328 48.611 11.6328C48.113 11.6328 47.6281 11.7915 47.2265 12.086C46.8252 12.3805 46.528 12.7953 46.3784 13.2702C46.2289 13.7452 46.2346 14.2554 46.3949 14.7268C46.5552 15.1982 46.8616 15.6062 47.2695 15.8916C46.8815 16.123 46.5601 16.4513 46.3368 16.8441C46.1136 17.2371 45.9962 17.6812 45.9961 18.1331ZM47.1997 13.975C47.1995 13.6983 47.2805 13.4277 47.4328 13.1967C47.5851 12.9657 47.802 12.7846 48.0564 12.6757C48.3108 12.567 48.5916 12.5355 48.8638 12.5851C49.136 12.6347 49.3876 12.7631 49.5875 12.9546C49.7872 13.1461 49.9263 13.392 49.9873 13.6618C50.0484 13.9317 50.0288 14.2136 49.931 14.4725C49.8332 14.7313 49.6614 14.9556 49.4371 15.1176C49.2127 15.2796 48.9459 15.372 48.6694 15.3835C48.6498 15.383 48.6306 15.3806 48.611 15.3806C48.5913 15.3806 48.5722 15.383 48.5526 15.3835C48.1889 15.3688 47.845 15.2139 47.5928 14.9514C47.3406 14.6889 47.1998 14.3391 47.1997 13.975ZM48.6109 16.4448C48.9449 16.4448 49.2712 16.5438 49.5489 16.7293C49.8266 16.9148 50.043 17.1784 50.1708 17.487C50.2986 17.7955 50.3319 18.135 50.2668 18.4625C50.2016 18.79 50.0409 19.0909 49.8047 19.327C49.5686 19.5631 49.2677 19.7239 48.9403 19.7891C48.6127 19.8542 48.2733 19.8207 47.9649 19.6929C47.6563 19.5652 47.3926 19.3487 47.2072 19.071C47.0215 18.7935 46.9225 18.467 46.9225 18.1331C46.9225 17.6853 47.1004 17.2559 47.4171 16.9392C47.7337 16.6226 48.1631 16.4448 48.6109 16.4448Z" fill="white"/>
<path d="M55.7013 20.7377C55.0793 20.7377 54.5469 20.5773 54.1038 20.2565C53.6608 19.9357 53.3071 19.4907 53.043 18.9214L53.7971 18.4092C54.0016 18.8542 54.2614 19.2061 54.5767 19.4648C54.8919 19.7131 55.2796 19.8374 55.7396 19.8374C56.2338 19.8374 56.6172 19.6977 56.8899 19.4182C57.1711 19.1284 57.3117 18.7352 57.3117 18.2384C57.3117 17.6279 57.1284 17.1777 56.762 16.8879C56.3957 16.5981 55.8249 16.4533 55.0495 16.4533V15.5684C55.7566 15.5684 56.2935 15.4339 56.6599 15.1648C57.0262 14.8957 57.2094 14.4922 57.2094 13.954C57.2094 13.5401 57.0858 13.2089 56.8387 12.9604C56.5917 12.7121 56.2338 12.5879 55.7652 12.5879C55.3221 12.5879 54.9431 12.7225 54.6278 12.9915C54.3125 13.2606 54.0867 13.628 53.9505 14.0937L53.1837 13.6591C53.3285 13.2451 53.5244 12.8932 53.7714 12.6035C54.0186 12.3138 54.3125 12.0912 54.6534 11.936C54.9942 11.7704 55.369 11.6875 55.778 11.6875C56.4851 11.6875 57.0475 11.8894 57.4649 12.293C57.891 12.6966 58.104 13.2348 58.104 13.9074C58.104 14.3214 58.0146 14.6887 57.8356 15.0095C57.6652 15.3304 57.4267 15.584 57.1199 15.7703C56.8217 15.9564 56.4851 16.0549 56.1103 16.0652V15.8944C56.7322 15.8944 57.2434 16.1065 57.6439 16.5309C58.0529 16.9552 58.2574 17.5243 58.2574 18.2384C58.2574 18.7558 58.1551 19.2009 57.9506 19.5734C57.7462 19.946 57.4521 20.2358 57.0687 20.4428C56.6853 20.6393 56.2296 20.7377 55.7013 20.7377Z" fill="white"/>
</g>
</svg>
