<svg width="21" height="14" viewBox="0 0 21 14" fill="none" xmlns="http://www.w3.org/2000/svg">
<path d="M2.0408 13.3333H19.8186C20.4297 13.3333 20.9297 12.8333 20.9297 12.2222C20.9297 11.6111 20.4297 11.1111 19.8186 11.1111H2.0408C1.42969 11.1111 0.929688 11.6111 0.929688 12.2222C0.929688 12.8333 1.42969 13.3333 2.0408 13.3333ZM2.0408 7.77778H19.8186C20.4297 7.77778 20.9297 7.27778 20.9297 6.66667C20.9297 6.05556 20.4297 5.55556 19.8186 5.55556H2.0408C1.42969 5.55556 0.929688 6.05556 0.929688 6.66667C0.929688 7.27778 1.42969 7.77778 2.0408 7.77778ZM0.929688 1.11111C0.929688 1.72222 1.42969 2.22222 2.0408 2.22222H19.8186C20.4297 2.22222 20.9297 1.72222 20.9297 1.11111C20.9297 0.5 20.4297 0 19.8186 0H2.0408C1.42969 0 0.929688 0.5 0.929688 1.11111Z" fill="white"/>
</svg>
