<svg width="159" height="25" viewBox="0 0 159 25" fill="none" xmlns="http://www.w3.org/2000/svg">
<g clip-path="url(#clip0_838_23)">
<path d="M42.2418 10.858H38.6525L37.953 13.2684H35.1094L38.7969 2.2959H42.2112L45.8993 13.2684H42.9338L42.2418 10.858ZM39.1926 8.85012H41.6942L40.4778 4.62254H40.4165L39.1926 8.85012Z" fill="white"/>
<path d="M49.5355 1.74805H46.8438V13.2681H49.5355V1.74805Z" fill="white"/>
<path d="M56.2492 4.69141C57.3187 4.69141 58.1501 5.07147 58.7433 5.8316C59.3416 6.59235 59.6404 7.6594 59.6404 9.03275C59.6404 10.4067 59.3441 11.4738 58.7508 12.2345C58.1626 12.9997 57.3387 13.3822 56.2792 13.3822C55.0071 13.3822 54.1426 12.8628 53.6862 11.8238H53.6331V15.8464H50.9414V4.80518H53.6181V6.28792H53.6712C53.8844 5.78596 54.2163 5.3959 54.6677 5.1171C55.1184 4.83331 55.6459 4.69141 56.2492 4.69141ZM55.2528 11.2613C55.7497 11.2613 56.1454 11.0606 56.4392 10.6605C56.733 10.2548 56.8799 9.71224 56.8799 9.03275C56.8799 8.35889 56.733 7.8213 56.4392 7.42124C56.1398 7.01554 55.7447 6.81238 55.2528 6.81238C54.7614 6.81238 54.3657 7.01554 54.0669 7.42124C53.7725 7.8263 53.6256 8.36639 53.6256 9.04088C53.6256 9.71974 53.7725 10.2598 54.0669 10.6605C54.3607 11.0606 54.7564 11.2613 55.2528 11.2613Z" fill="white"/>
<path d="M60.7773 1.74805H63.4159V6.39382H63.469C63.9254 5.238 64.8349 4.66041 66.1989 4.66041C67.1415 4.66041 67.8817 4.9417 68.4193 5.5043C68.9568 6.07189 69.225 6.85515 69.225 7.85406V13.2681H66.5258V8.43166C66.5258 7.94533 66.3939 7.56027 66.1301 7.27584C65.8619 6.99705 65.4969 6.85765 65.0356 6.85765C64.5742 6.85765 64.1992 7.01017 63.9097 7.31397C63.6159 7.6234 63.469 8.01909 63.469 8.50042V13.2681H60.7773V1.74805Z" fill="white"/>
<path d="M74.0164 11.5123C74.4627 11.5123 74.8378 11.3929 75.1416 11.1548C75.461 10.9116 75.6211 10.5997 75.6211 10.2196V9.63388L74.0621 9.74078C73.2713 9.79641 72.8756 10.0952 72.8756 10.6378C72.8756 10.9066 72.98 11.1198 73.1875 11.2767C73.3907 11.4336 73.667 11.5123 74.0164 11.5123ZM73.0663 13.3826C72.2599 13.3826 71.586 13.1445 71.0434 12.6681C70.4858 12.1868 70.207 11.5705 70.207 10.8203C70.207 9.23382 71.3497 8.3693 73.6364 8.2274L75.6211 8.1055V7.61917C75.6211 7.27974 75.5067 7.01595 75.2785 6.82841C75.056 6.64588 74.7515 6.55462 74.3665 6.55462C74.0064 6.55462 73.707 6.64088 73.4688 6.81279C73.2407 6.98031 73.1063 7.19848 73.0663 7.46727H70.6402C70.6759 6.61025 71.0409 5.92326 71.7354 5.4063C72.4349 4.88434 73.3551 4.62305 74.4953 4.62305C75.6211 4.62305 76.5281 4.88434 77.2176 5.4063C77.9071 5.93327 78.2521 6.62276 78.2521 7.47477V13.2689H75.6361V12.0524H75.5829C75.3598 12.4681 75.0128 12.795 74.5409 13.0332C74.0852 13.2664 73.5932 13.3826 73.0663 13.3826Z" fill="white"/>
<path d="M82.7461 4.80553H85.3622V6.43268H85.4153C85.5822 5.89009 85.8841 5.45939 86.3198 5.13996C86.7561 4.82053 87.2606 4.66113 87.8332 4.66113C88.4621 4.66113 88.9815 4.81553 89.3922 5.12496C89.8029 5.43939 90.0686 5.88259 90.1905 6.45581H90.2436C90.4111 5.90822 90.7306 5.47189 91.2019 5.14746C91.6782 4.82303 92.2308 4.66113 92.8597 4.66113C93.6861 4.66113 94.3549 4.92493 94.8669 5.45189C95.3788 5.98448 95.6351 6.67897 95.6351 7.53536V13.2688H92.9428V8.21985C92.9428 7.3072 92.5377 6.85087 91.7263 6.85087C91.3463 6.85087 91.0444 6.97777 90.8218 7.23094C90.5937 7.48473 90.4793 7.82416 90.4793 8.24986V13.2688H87.9095V8.18172C87.9095 7.75602 87.8026 7.42659 87.59 7.19343C87.3819 6.96527 87.0831 6.85087 86.6924 6.85087C86.3173 6.85087 86.0135 6.98027 85.7803 7.23906C85.5522 7.49723 85.4378 7.83979 85.4378 8.26548V13.2688H82.7461V4.80553Z" fill="white"/>
<path d="M100.427 11.5123C100.873 11.5123 101.248 11.3929 101.552 11.1548C101.872 10.9116 102.031 10.5997 102.031 10.2196V9.63388L100.472 9.74078C99.6815 9.79641 99.2864 10.0952 99.2864 10.6378C99.2864 10.9066 99.3902 11.1198 99.5977 11.2767C99.8009 11.4336 100.077 11.5123 100.427 11.5123ZM99.4764 13.3826C98.67 13.3826 97.9962 13.1445 97.4536 12.6681C96.896 12.1868 96.6172 11.5705 96.6172 10.8203C96.6172 9.23382 97.7605 8.3693 100.047 8.2274L102.031 8.1055V7.61917C102.031 7.27974 101.917 7.01595 101.689 6.82841C101.466 6.64588 101.162 6.55462 100.777 6.55462C100.417 6.55462 100.118 6.64088 99.879 6.81279C99.6514 6.98031 99.5171 7.19848 99.4764 7.46727H97.0504C97.086 6.61025 97.4511 5.92326 98.1456 5.4063C98.8451 4.88434 99.7652 4.62305 100.906 4.62305C102.031 4.62305 102.939 4.88434 103.628 5.4063C104.317 5.93327 104.662 6.62276 104.662 7.47477V13.2689H102.046V12.0524H101.993C101.77 12.4681 101.423 12.795 100.952 13.0332C100.495 13.2664 100.003 13.3826 99.4764 13.3826Z" fill="white"/>
<path d="M106.008 4.80518H108.624V6.39419H108.677C108.986 5.259 109.653 4.69141 110.677 4.69141C110.92 4.69141 111.148 4.72641 111.361 4.79767V7.10931C111.128 7.00804 110.839 6.95741 110.494 6.95741C109.917 6.95741 109.473 7.11431 109.163 7.42874C108.855 7.74817 108.7 8.20449 108.7 8.79709V13.2685H106.008V4.80518Z" fill="white"/>
<path d="M117.489 4.80481H120.501L117.459 8.43166L120.675 13.2681H117.573L115.467 10.0438L114.95 10.6445V13.2681H112.258V1.74805H114.95V8.0441H115.003L117.489 4.80481Z" fill="white"/>
<path d="M124.767 6.53962C124.336 6.53962 123.974 6.68402 123.679 6.97281C123.385 7.26161 123.22 7.63167 123.185 8.083H126.333C126.308 7.61667 126.153 7.24161 125.87 6.95781C125.58 6.67901 125.213 6.53962 124.767 6.53962ZM128.828 10.6072C128.696 11.4742 128.27 12.1637 127.55 12.6756C126.825 13.1926 125.915 13.4514 124.82 13.4514C123.482 13.4514 122.432 13.0638 121.672 12.2881C120.911 11.5123 120.531 10.4428 120.531 9.07879C120.531 7.71544 120.909 6.63026 121.665 5.8245C122.42 5.02374 123.441 4.62305 124.729 4.62305C125.991 4.62305 127 5.00561 127.755 5.77136C128.506 6.54212 128.881 7.57104 128.881 8.85875V9.62638H123.155V9.79391C123.155 10.3109 123.312 10.7291 123.626 11.0485C123.941 11.3729 124.351 11.5354 124.858 11.5354C125.664 11.5354 126.176 11.226 126.394 10.6072H128.828Z" fill="white"/>
<path d="M133.333 2.93457V4.80488H134.861V6.79709H133.333V10.4089C133.333 11.0022 133.66 11.2985 134.314 11.2985C134.501 11.2985 134.684 11.286 134.861 11.261V13.1769C134.552 13.2482 134.157 13.2832 133.675 13.2832C132.59 13.2832 131.812 13.1006 131.341 12.7356C130.874 12.3761 130.641 11.7804 130.641 10.949V6.79709H129.508V4.80488H130.641V2.93457H133.333Z" fill="white"/>
<path d="M136.038 4.80552H138.737V13.2688H136.038V4.80552ZM137.384 4.10603C136.998 4.10603 136.674 3.97913 136.411 3.72597C136.137 3.47217 136 3.15525 136 2.77518C136 2.40012 136.137 2.08319 136.411 1.82502C136.674 1.57123 136.998 1.44434 137.384 1.44434C137.769 1.44434 138.096 1.57123 138.365 1.82502C138.639 2.08319 138.775 2.40012 138.775 2.77518C138.775 3.15525 138.639 3.47217 138.365 3.72597C138.101 3.97913 137.774 4.10603 137.384 4.10603Z" fill="white"/>
<path d="M140.109 4.80553H142.725V6.39455H142.778C143.245 5.23873 144.144 4.66113 145.478 4.66113C146.42 4.66113 147.161 4.94243 147.698 5.50502C148.23 6.06762 148.496 6.84837 148.496 7.84729V13.2688H145.797V8.42489C145.797 7.93355 145.67 7.55036 145.417 7.27657C145.158 6.99777 144.798 6.85837 144.337 6.85837C143.881 6.85837 143.511 7.0109 143.227 7.3147C142.943 7.61913 142.801 8.01169 142.801 8.49365V13.2688H140.109V4.80553Z" fill="white"/>
<path d="M153.927 11.185C154.434 11.185 154.832 10.9975 155.12 10.6224C155.415 10.2423 155.562 9.71224 155.562 9.03275C155.562 8.35389 155.415 7.8138 155.12 7.41311C154.827 7.01304 154.428 6.81238 153.927 6.81238C153.425 6.81238 153.029 7.01054 152.741 7.40561C152.447 7.8063 152.299 8.34639 152.299 9.02525C152.299 9.70974 152.444 10.2423 152.733 10.6224C153.022 10.9975 153.42 11.185 153.927 11.185ZM153.881 16.409C152.685 16.409 151.714 16.1758 150.969 15.7095C150.213 15.2382 149.818 14.6093 149.783 13.8236H152.398C152.454 14.0617 152.626 14.2542 152.916 14.4011C153.199 14.5437 153.536 14.6143 153.927 14.6143C154.418 14.6143 154.812 14.498 155.105 14.2649C155.399 14.0261 155.547 13.7042 155.547 13.2991V11.6944H155.493C155.321 12.1458 155.004 12.5058 154.543 12.774C154.076 13.0478 153.534 13.1847 152.916 13.1847C151.897 13.1847 151.083 12.8171 150.475 12.082C149.856 11.3319 149.547 10.308 149.547 9.01025C149.547 7.6669 149.851 6.61235 150.46 5.84722C151.068 5.07647 151.902 4.69141 152.961 4.69141C153.559 4.69141 154.089 4.83831 154.55 5.1321C154.997 5.4209 155.318 5.80659 155.516 6.28792H155.562V4.80518H158.246V13.1009C158.246 14.1048 157.848 14.9056 157.052 15.5038C156.256 16.1071 155.199 16.409 153.881 16.409Z" fill="white"/>
<path d="M38.7284 20.3316H36.3468L35.7179 22.0688H35.1484L37.27 16.3984H37.8045L39.923 22.0688H39.3573L38.7284 20.3316ZM36.508 19.8684H38.5671L37.5495 17.0623H37.5257L36.508 19.8684Z" fill="white"/>
<path d="M43.8676 22.0689H43.18L41.1052 19.9979H41.0815V22.0689H40.5664V17.8369H41.0815V19.7422H41.1052L43.1287 17.8369H43.7888L41.6316 19.8485L43.8676 22.0689Z" fill="white"/>
<path d="M47.481 18.2726H46.0352V22.0689H45.5207V18.2726H44.0742V17.8369H47.481V18.2726Z" fill="white"/>
<path d="M48.4729 23.5422C48.3835 23.5422 48.2973 23.5322 48.2135 23.511V23.0672C48.2917 23.0853 48.3773 23.0947 48.4686 23.0947C48.6598 23.0947 48.8161 23.0384 48.9361 22.9253C49.0543 22.8152 49.1606 22.6271 49.2549 22.3595L49.3493 22.0964L47.7578 17.8369H48.3154L49.6125 21.5425H49.6244L50.9246 17.8369H51.4747L49.8244 22.2733C49.6413 22.7709 49.455 23.1065 49.2662 23.2791C49.0805 23.4547 48.8161 23.5422 48.4729 23.5422Z" fill="white"/>
<path d="M53.3646 21.6597C53.7447 21.6597 54.0616 21.5459 54.316 21.3178C54.5723 21.0927 54.7011 20.8121 54.7011 20.477V20.0094L53.4628 20.0957C52.737 20.1432 52.3745 20.4089 52.3745 20.8933C52.3745 21.1215 52.4664 21.3059 52.6495 21.4478C52.8327 21.5891 53.0715 21.6597 53.3646 21.6597ZM53.2627 22.1154C52.8408 22.1154 52.4989 22.0029 52.2369 21.7779C51.975 21.5497 51.8438 21.254 51.8438 20.8896C51.8438 20.1532 52.3626 19.7488 53.4003 19.6756L54.7011 19.5887V19.2274C54.7011 18.918 54.608 18.6786 54.4217 18.5086C54.2335 18.3379 53.9685 18.2529 53.6278 18.2529C53.3321 18.2529 53.0871 18.3235 52.8933 18.4648C52.6995 18.6092 52.5789 18.8067 52.5314 19.0586H52.0325C52.0538 18.6861 52.2144 18.3823 52.5157 18.1466C52.8145 17.9085 53.1865 17.7891 53.6322 17.7891C54.1166 17.7891 54.5029 17.9147 54.7911 18.1666C55.0768 18.4179 55.2193 18.7573 55.2193 19.1843V22.0685H54.7242V21.259H54.7124C54.5973 21.5159 54.4086 21.7228 54.1466 21.8797C53.8822 22.0373 53.5872 22.1154 53.2627 22.1154Z" fill="white"/>
<path d="M57.1452 20.2492C57.0977 20.8574 57.0008 21.3025 56.8546 21.5857C56.6733 21.9313 56.3945 22.1045 56.0175 22.1045C55.9307 22.1045 55.8519 22.0914 55.7812 22.0651V21.5894C55.8444 21.6107 55.915 21.6207 55.9938 21.6207C56.2007 21.6207 56.3576 21.4925 56.4651 21.2356C56.557 21.0156 56.6195 20.6805 56.6539 20.2298C56.7139 19.601 56.7689 18.8033 56.8189 17.8369H59.5263V22.0689H59.0118V18.2726H57.2865C57.2446 19.0796 57.1977 19.7385 57.1452 20.2492Z" fill="white"/>
<path d="M61.0496 19.7147V21.6325H61.9654C62.2748 21.6325 62.5224 21.545 62.708 21.3694C62.8918 21.1962 62.9831 20.9649 62.9831 20.6736C62.9831 20.3805 62.8906 20.1473 62.7043 19.9741C62.5211 19.8016 62.2748 19.7147 61.9654 19.7147H61.0496ZM60.5352 17.8369H61.0496V19.2747H61.9654C62.4317 19.2747 62.8037 19.4009 63.0812 19.6522C63.3619 19.906 63.5019 20.2467 63.5019 20.6736C63.5019 21.0981 63.3619 21.4375 63.0812 21.6919C62.8037 21.9432 62.4317 22.0689 61.9654 22.0689H60.5352V17.8369Z" fill="white"/>
<path d="M67.1738 20.0885H64.8002V22.0689H64.2852V17.8369H64.8002V19.6522H67.1738V17.8369H67.6882V22.0689H67.1738V20.0885Z" fill="white"/>
<path d="M72.2987 17.8369H72.8138V22.0689H72.2987V17.8369ZM69.2176 19.7147V21.6325H70.1334C70.4428 21.6325 70.6903 21.545 70.876 21.3694C71.0598 21.1962 71.151 20.9649 71.151 20.6736C71.151 20.3805 71.0585 20.1473 70.8722 19.9741C70.6891 19.8016 70.4428 19.7147 70.1334 19.7147H69.2176ZM68.7031 17.8369H69.2176V19.2747H70.1334C70.5997 19.2747 70.9716 19.4009 71.2498 19.6522C71.5298 19.906 71.6699 20.2467 71.6699 20.6736C71.6699 21.0981 71.5298 21.4375 71.2498 21.6919C70.9716 21.9432 70.5997 22.0689 70.1334 22.0689H68.7031V17.8369Z" fill="white"/>
<path d="M74.8069 16.0566C74.8069 16.2923 74.8775 16.4836 75.0194 16.6305C75.1632 16.7793 75.3545 16.8543 75.5926 16.8543C75.8314 16.8543 76.0215 16.7793 76.1627 16.6305C76.304 16.4836 76.3746 16.2923 76.3746 16.0566H76.7716C76.7716 16.3942 76.6641 16.6655 76.4497 16.8699C76.2321 17.0768 75.9465 17.1806 75.5926 17.1806C75.2363 17.1806 74.9513 17.0768 74.7362 16.8699C74.5187 16.6655 74.4099 16.3942 74.4099 16.0566H74.8069ZM73.8242 22.0689V17.8369H74.3393V21.2594H74.3631L76.7678 17.8369H77.2823V22.0689H76.7678V18.6464H76.7403L74.3393 22.0689H73.8242Z" fill="white"/>
<path d="M80.0781 22.0689V17.8369H80.6951L82.3691 21.3813H82.3923L84.0625 17.8369H84.6601V22.0689H84.1413V18.7796H84.1176L82.5692 21.9864H82.1647L80.6163 18.7796H80.5926V22.0689H80.0781Z" fill="white"/>
<path d="M87.0209 21.6597C87.4003 21.6597 87.7179 21.5459 87.9717 21.3178C88.2286 21.0927 88.3567 20.8121 88.3567 20.477V20.0094L87.119 20.0957C86.3933 20.1432 86.0307 20.4089 86.0307 20.8933C86.0307 21.1215 86.122 21.3059 86.3058 21.4478C86.4889 21.5891 86.7271 21.6597 87.0209 21.6597ZM86.9184 22.1154C86.497 22.1154 86.1551 22.0029 85.8932 21.7779C85.6306 21.5497 85.5 21.254 85.5 20.8896C85.5 20.1532 86.0188 19.7488 87.0559 19.6756L88.3567 19.5887V19.2274C88.3567 18.918 88.2636 18.6786 88.0779 18.5086C87.8891 18.3379 87.6247 18.2529 87.2841 18.2529C86.9878 18.2529 86.7433 18.3235 86.5489 18.4648C86.3551 18.6092 86.2345 18.8067 86.1876 19.0586H85.6888C85.7094 18.6861 85.8707 18.3823 86.172 18.1466C86.4708 17.9085 86.8427 17.7891 87.2878 17.7891C87.7729 17.7891 88.1592 17.9147 88.4474 18.1666C88.733 18.4179 88.8756 18.7573 88.8756 19.1843V22.0685H88.3805V21.259H88.3686C88.2536 21.5159 88.0648 21.7228 87.8029 21.8797C87.5378 22.0373 87.2434 22.1154 86.9184 22.1154Z" fill="white"/>
<path d="M91.8089 17.7891C92.3434 17.7891 92.7778 17.9885 93.1135 18.3867C93.4461 18.7849 93.6123 19.3062 93.6123 19.9507C93.6123 20.5952 93.4461 21.1177 93.1135 21.5184C92.7835 21.9166 92.3509 22.1154 91.8164 22.1154C91.4839 22.1154 91.1876 22.0304 90.9281 21.8604C90.6769 21.6978 90.4912 21.4766 90.3706 21.1959H90.3587V23.4556H89.8398V17.8366H90.3312V18.7123H90.343C90.4556 18.4404 90.6443 18.2185 90.9088 18.0485C91.1788 17.8753 91.4789 17.7891 91.8089 17.7891ZM91.7183 21.6478C92.1271 21.6478 92.4572 21.4934 92.7084 21.1846C92.9572 20.8727 93.0816 20.4626 93.0816 19.9544C93.0816 19.4462 92.9572 19.0349 92.7084 18.7205C92.4572 18.4085 92.1271 18.2529 91.7183 18.2529C91.3151 18.2529 90.9875 18.4098 90.7356 18.7242C90.4818 19.0411 90.3549 19.45 90.3549 19.9507C90.3549 20.4533 90.4818 20.8621 90.7356 21.1765C90.9875 21.4909 91.3151 21.6478 91.7183 21.6478Z" fill="white"/>
<path d="M97.7152 22.0689H97.0276L94.9529 19.9979H94.9291V22.0689H94.4141V17.8369H94.9291V19.7422H94.9529L96.9764 17.8369H97.6365L95.4792 19.8485L97.7152 22.0689Z" fill="white"/>
<path d="M99.8823 18.2491C99.5023 18.2491 99.191 18.3785 98.9472 18.638C98.7009 18.8949 98.5659 19.2337 98.5421 19.6556H101.175C101.17 19.2337 101.049 18.8949 100.814 18.638C100.576 18.3785 100.265 18.2491 99.8823 18.2491ZM101.663 20.8702C101.6 21.234 101.408 21.5316 101.089 21.7622C100.767 21.9979 100.377 22.1154 99.9217 22.1154C99.3348 22.1154 98.8684 21.9229 98.5227 21.5378C98.1771 21.1502 98.0039 20.6252 98.0039 19.9619C98.0039 19.3049 98.1758 18.778 98.519 18.3823C98.8647 17.9872 99.3216 17.7891 99.8905 17.7891C100.446 17.7891 100.89 17.9753 101.223 18.3473C101.553 18.7217 101.718 19.2237 101.718 19.8519V20.0801H98.5421V20.1076C98.5421 20.5845 98.6696 20.9615 98.9234 21.2396C99.1754 21.5172 99.5117 21.656 99.9336 21.656C100.246 21.656 100.511 21.5828 100.731 21.4359C100.946 21.2946 101.085 21.1059 101.148 20.8702H101.663Z" fill="white"/>
<path d="M105.497 18.2726H104.051V22.0689H103.536V18.2726H102.09V17.8369H105.497V18.2726Z" fill="white"/>
<path d="M106.164 22.0689V17.8369H106.679V21.2594H106.702L109.107 17.8369H109.622V22.0689H109.107V18.6464H109.08L106.679 22.0689H106.164Z" fill="white"/>
<path d="M113.518 20.0885H111.144V22.0689H110.629V17.8369H111.144V19.6522H113.518V17.8369H114.032V22.0689H113.518V20.0885Z" fill="white"/>
<path d="M115.562 18.2726V22.0689H115.047V17.8369H117.731V18.2726H115.562Z" fill="white"/>
<path d="M120.273 22.0689V17.8369H120.788V21.2594H120.812L123.216 17.8369H123.732V22.0689H123.216V18.6464H123.189L120.788 22.0689H120.273Z" fill="white"/>
<path d="M129.377 18.2726H127.042V22.0689H126.527V17.8369H129.891V22.0689H129.377V18.2726Z" fill="white"/>
<path d="M132.875 17.7891C133.41 17.7891 133.844 17.9885 134.18 18.3867C134.512 18.7849 134.679 19.3062 134.679 19.9507C134.679 20.5952 134.512 21.1177 134.18 21.5184C133.85 21.9166 133.417 22.1154 132.883 22.1154C132.55 22.1154 132.254 22.0304 131.995 21.8604C131.743 21.6978 131.558 21.4766 131.437 21.1959H131.425V23.4556H130.906V17.8366H131.398V18.7123H131.409C131.522 18.4404 131.711 18.2185 131.975 18.0485C132.245 17.8753 132.545 17.7891 132.875 17.7891ZM132.785 21.6478C133.194 21.6478 133.524 21.4934 133.775 21.1846C134.024 20.8727 134.148 20.4626 134.148 19.9544C134.148 19.4462 134.024 19.0349 133.775 18.7205C133.524 18.4085 133.194 18.2529 132.785 18.2529C132.381 18.2529 132.054 18.4098 131.802 18.7242C131.548 19.0411 131.421 19.45 131.421 19.9507C131.421 20.4533 131.548 20.8621 131.802 21.1765C132.054 21.4909 132.381 21.6478 132.785 21.6478Z" fill="white"/>
<path d="M137.187 22.1154C136.606 22.1154 136.141 21.9191 135.792 21.5259C135.441 21.1359 135.266 20.6108 135.266 19.9507C135.266 19.2931 135.441 18.7673 135.792 18.3748C136.141 17.9841 136.606 17.7891 137.187 17.7891C137.772 17.7891 138.238 17.9841 138.586 18.3748C138.937 18.7673 139.113 19.2931 139.113 19.9507C139.113 20.6083 138.937 21.1334 138.586 21.5259C138.238 21.9191 137.772 22.1154 137.187 22.1154ZM137.187 21.6478C137.62 21.6478 137.96 21.4972 138.209 21.1959C138.458 20.8921 138.582 20.477 138.582 19.9507C138.582 19.4237 138.458 19.0086 138.209 18.7048C137.96 18.4035 137.62 18.2529 137.187 18.2529C136.758 18.2529 136.418 18.4035 136.17 18.7048C135.921 19.0086 135.796 19.4237 135.796 19.9507C135.796 20.477 135.921 20.8921 136.17 21.1959C136.418 21.4972 136.758 21.6478 137.187 21.6478Z" fill="white"/>
<path d="M142.809 18.2726H140.97C140.931 19.0221 140.882 19.681 140.825 20.2492C140.77 20.9124 140.643 21.3656 140.443 21.6088V21.6325H142.809V18.2726ZM139.484 23.1891V21.6325H139.826C140.109 21.4494 140.281 20.9818 140.341 20.2298C140.42 19.2603 140.475 18.4626 140.506 17.8369H143.328V21.6325H144.011V23.1891H143.524V22.0689H139.972V23.1891H139.484Z" fill="white"/>
<path d="M145.997 21.6597C146.378 21.6597 146.694 21.5459 146.948 21.3178C147.205 21.0927 147.333 20.8121 147.333 20.477V20.0094L146.096 20.0957C145.37 20.1432 145.007 20.4089 145.007 20.8933C145.007 21.1215 145.099 21.3059 145.282 21.4478C145.465 21.5891 145.704 21.6597 145.997 21.6597ZM145.896 22.1154C145.474 22.1154 145.132 22.0029 144.87 21.7779C144.608 21.5497 144.477 21.254 144.477 20.8896C144.477 20.1532 144.995 19.7488 146.033 19.6756L147.333 19.5887V19.2274C147.333 18.918 147.241 18.6786 147.054 18.5086C146.866 18.3379 146.601 18.2529 146.261 18.2529C145.965 18.2529 145.72 18.3235 145.526 18.4648C145.332 18.6092 145.212 18.8067 145.164 19.0586H144.665C144.687 18.6861 144.847 18.3823 145.149 18.1466C145.447 17.9085 145.819 17.7891 146.265 17.7891C146.749 17.7891 147.136 17.9147 147.424 18.1666C147.71 18.4179 147.852 18.7573 147.852 19.1843V22.0685H147.357V21.259H147.345C147.23 21.5159 147.041 21.7228 146.779 21.8797C146.515 22.0373 146.22 22.1154 145.896 22.1154Z" fill="white"/>
<path d="M154.12 22.0689H153.436L151.538 19.9979H151.514V22.0689H151V19.9979H150.976L149.078 22.0689H148.41L150.457 19.8604L148.473 17.8369H149.129L150.976 19.7422H151V17.8369H151.514V19.7422H151.538L153.385 17.8369H154.037L152.061 19.8485L154.12 22.0689Z" fill="white"/>
<path d="M154.73 22.0689V17.8369H155.246V21.2594H155.269L157.674 17.8369H158.189V22.0689H157.674V18.6464H157.647L155.246 22.0689H154.73Z" fill="white"/>
<path fill-rule="evenodd" clip-rule="evenodd" d="M20.0769 14.8929L20.1382 14.6478L21.9152 20.1014L21.7008 20.4078V20.3771L21.6395 20.4997C16.5229 27.3014 5.67701 25.9839 1.66342 19.0597C-2.59528 11.7065 1.72469 1.99426 10.0583 0.247884C10.9161 0.0946933 11.8046 0.00277845 12.6931 0.00277845C16.6455 0.00277845 20.8122 1.71851 22.9263 5.18062L24.5807 0.676818H29.7279L25.8369 11.4921L28.3492 18.4776C28.625 19.1822 29.3909 19.5805 30.0956 19.3967L30.3101 19.3354L31.6888 23.9618L30.0343 24.3907C27.6752 24.9729 25.2548 23.778 24.3663 21.5107C24.1518 21.1124 23.9373 20.6835 23.7841 20.2239L22.865 17.8035L22.8037 17.7116V17.681L20.751 11.4614C19.6174 8.02997 17.5033 6.37551 15.8182 5.70147C14.8991 5.27254 13.8574 5.05807 12.7544 5.05807C8.49572 5.05807 5.06425 8.4589 5.06425 12.6257C5.06425 16.7925 8.49572 20.1933 12.7544 20.1933C16.1859 20.1933 19.0965 17.9567 20.0769 14.8929Z" fill="url(#paint0_linear_838_23)"/>
</g>
<defs>
<linearGradient id="paint0_linear_838_23" x1="0.0395956" y1="0.352055" x2="30.6777" y2="0.352055" gradientUnits="userSpaceOnUse">
<stop stop-color="#7A5FFF"/>
<stop offset="1" stop-color="#00E824"/>
</linearGradient>
<clipPath id="clip0_838_23">
<rect width="158.333" height="25" fill="white"/>
</clipPath>
</defs>
</svg>
