<svg width="32" height="32" viewBox="0 0 32 32" fill="none" xmlns="http://www.w3.org/2000/svg">
<g clip-path="url(#clip0_832_893)">
<path d="M23.9675 11.5026C23.9655 11.5006 23.9655 11.4986 23.9645 11.4966C23.9615 11.4926 23.9555 11.4906 23.9525 11.4856C23.6035 11.0946 23.0975 10.8496 22.5345 10.8486H11.9975C11.4345 10.8486 10.9285 11.0936 10.5815 11.4836L10.5795 11.4856C10.5755 11.4896 10.5705 11.4916 10.5675 11.4966C10.5655 11.4986 10.5655 11.5006 10.5645 11.5036C10.2705 11.8356 10.0915 12.2756 10.0915 12.7566V15.7206H7.8425C7.6875 15.7216 7.5625 15.8466 7.5625 16.0016C7.5625 16.1566 7.6875 16.2816 7.8425 16.2826H10.0915V17.8086H9.1075H9.1065C8.9515 17.8086 8.8255 17.9346 8.8255 18.0896C8.8255 18.2446 8.9515 18.3706 9.1065 18.3706H9.1075H10.0915V19.2466C10.0925 20.2996 10.9455 21.1526 11.9985 21.1536H22.5355C23.5885 21.1526 24.4415 20.2996 24.4425 19.2466V12.7576C24.4425 12.2766 24.2635 11.8366 23.9675 11.5026ZM22.5345 11.4096C22.8225 11.4096 23.0895 11.5016 23.3075 11.6566L23.3035 11.6536L17.9385 15.8176C17.7545 15.9616 17.5205 16.0476 17.2665 16.0476C17.0125 16.0476 16.7785 15.9606 16.5925 15.8156L16.5945 15.8176L11.2295 11.6536C11.4435 11.5016 11.7105 11.4096 11.9975 11.4096H22.5345ZM23.8795 19.2436C23.8785 19.9866 23.2765 20.5876 22.5345 20.5886H11.9975C11.2545 20.5876 10.6535 19.9856 10.6525 19.2436V18.3676H13.4075H13.4085C13.5635 18.3676 13.6895 18.2416 13.6895 18.0866C13.6895 17.9316 13.5635 17.8056 13.4085 17.8056H13.4075H10.6525V12.7546C10.6535 12.5006 10.7265 12.2636 10.8505 12.0626L10.8475 12.0686L16.2505 16.2616C16.5285 16.4786 16.8825 16.6096 17.2665 16.6096C17.6505 16.6096 18.0055 16.4786 18.2865 16.2586L18.2825 16.2616L23.6855 12.0686C23.8065 12.2646 23.8785 12.5006 23.8805 12.7546L23.8795 19.2436Z" fill="#21A038"/>
<circle cx="16" cy="16" r="15.75" stroke="#21A038" stroke-width="0.5"/>
</g>
<defs>
<clipPath id="clip0_832_893">
<rect width="32" height="32" fill="white"/>
</clipPath>
</defs>
</svg>
