<svg width="100" height="100" viewBox="0 0 100 100" fill="none" xmlns="http://www.w3.org/2000/svg">
<g clip-path="url(#clip0_836_20)">
<path d="M49.9992 5.55566C41.2089 5.55566 32.616 8.16228 25.3071 13.0459C17.9983 17.9295 12.3017 24.8708 8.93784 32.992C5.57394 41.1131 4.6938 50.0494 6.4087 58.6708C8.12359 67.2922 12.3565 75.2114 18.5722 81.4271C24.7879 87.6427 32.7071 91.8757 41.3285 93.5906C49.9499 95.3055 58.8861 94.4253 67.0073 91.0614C75.1285 87.6975 82.0697 82.001 86.9534 74.6921C91.837 67.3833 94.4436 58.7904 94.4436 50.0001C94.4436 38.2127 89.7611 26.9081 81.4261 18.5731C73.0912 10.2382 61.7866 5.55566 49.9992 5.55566ZM79.0269 35.0834L42.5269 71.5557L20.9714 50.0001C20.2347 49.2634 19.8208 48.2642 19.8208 47.2223C19.8208 46.1805 20.2347 45.1813 20.9714 44.4446C21.7081 43.7078 22.7073 43.294 23.7492 43.294C24.791 43.294 25.7902 43.7078 26.5269 44.4446L42.5825 60.5001L73.5269 29.5834C73.8917 29.2187 74.3248 28.9293 74.8014 28.7319C75.278 28.5345 75.7888 28.4328 76.3047 28.4328C76.8206 28.4328 77.3314 28.5345 77.808 28.7319C78.2846 28.9293 78.7177 29.2187 79.0825 29.5834C79.4473 29.9482 79.7366 30.3813 79.9341 30.8579C80.1315 31.3345 80.2331 31.8453 80.2331 32.3612C80.2331 32.8771 80.1315 33.3879 79.9341 33.8645C79.7366 34.3412 79.4473 34.7742 79.0825 35.139L79.0269 35.0834Z" fill="#21A038"/>
<path d="M79.0269 35.0834L42.5269 71.5557L20.9714 50.0001C20.2347 49.2634 19.8208 48.2642 19.8208 47.2223C19.8208 46.1805 20.2347 45.1813 20.9714 44.4446C21.7081 43.7078 22.7073 43.294 23.7492 43.294C24.791 43.294 25.7902 43.7078 26.5269 44.4446L42.5825 60.5001L73.5269 29.5834C73.8917 29.2187 74.3248 28.9293 74.8014 28.7319C75.278 28.5345 75.7888 28.4328 76.3047 28.4328C76.8206 28.4328 77.3314 28.5345 77.808 28.7319C78.2846 28.9293 78.7177 29.2187 79.0825 29.5834C79.4473 29.9482 79.7366 30.3813 79.9341 30.8579C80.1315 31.3345 80.2331 31.8453 80.2331 32.3612C80.2331 32.8771 80.1315 33.3879 79.9341 33.8645C79.7366 34.3412 79.4473 34.7742 79.0825 35.139L79.0269 35.0834Z" fill="white"/>
</g>
<defs>
<clipPath id="clip0_836_20">
<rect width="100" height="100" fill="white"/>
</clipPath>
</defs>
</svg>
