<svg width="50" height="50" viewBox="0 0 50 50" fill="none" xmlns="http://www.w3.org/2000/svg">
<path d="M25.0013 4.16699C13.5013 4.16699 4.16797 13.5003 4.16797 25.0003C4.16797 36.5003 13.5013 45.8337 25.0013 45.8337C36.5013 45.8337 45.8346 36.5003 45.8346 25.0003C45.8346 13.5003 36.5013 4.16699 25.0013 4.16699ZM34.668 18.3337C34.3555 21.6253 33.0013 29.6253 32.3138 33.3128C32.0221 34.8753 31.4388 35.3962 30.8971 35.4587C29.6888 35.5628 28.7721 34.667 27.6055 33.8962C25.7721 32.6878 24.7305 31.9378 22.9596 30.7712C20.8971 29.417 22.2305 28.667 23.418 27.4587C23.7305 27.1462 29.0638 22.292 29.168 21.8545C29.1824 21.7882 29.1805 21.7194 29.1624 21.6541C29.1442 21.5887 29.1104 21.5288 29.0638 21.4795C28.9388 21.3753 28.7721 21.417 28.6263 21.4378C28.4388 21.4795 25.5221 23.417 19.8346 27.2503C19.0013 27.8128 18.2513 28.1045 17.5846 28.0837C16.8346 28.0628 15.418 27.667 14.3555 27.3128C13.043 26.8962 12.0221 26.667 12.1055 25.9378C12.1471 25.5628 12.668 25.1878 13.6471 24.792C19.7305 22.1462 23.7721 20.3962 25.793 19.5628C31.5846 17.1462 32.7721 16.7295 33.5638 16.7295C33.7305 16.7295 34.1263 16.7712 34.3763 16.9795C34.5846 17.1462 34.6471 17.3753 34.668 17.542C34.6471 17.667 34.6888 18.042 34.668 18.3337Z" fill="#999999"/>
</svg>
