<svg width="32" height="32" viewBox="0 0 32 32" fill="none" xmlns="http://www.w3.org/2000/svg">
<g clip-path="url(#clip0_832_896)">
<path d="M17.9136 19.4055L20.5246 15.8515C21.1446 15.0525 21.5176 14.0355 21.5176 12.9315C21.5176 12.9255 21.5176 12.9195 21.5176 12.9145V12.9155C21.5076 11.3565 20.8456 9.95446 19.7916 8.96646L19.7886 8.96346C18.8296 8.07046 17.5386 7.52246 16.1196 7.52246C13.2506 7.52246 10.9046 9.76346 10.7386 12.5915L10.7376 12.6065C10.7316 12.6985 10.7286 12.8065 10.7286 12.9145C10.7286 14.1185 11.1226 15.2315 11.7886 16.1295L11.7786 16.1145L14.0416 19.4105C10.2376 19.6165 6.55859 20.4515 6.55859 21.9185C6.55859 23.5815 11.4236 24.4795 16.0006 24.4795C20.5776 24.4795 25.4426 23.5815 25.4426 21.9185C25.4426 20.4195 21.7316 19.5895 17.9136 19.4055ZM11.2986 12.6365C11.4416 10.2045 13.3656 8.26346 15.7776 8.09546L15.7926 8.09446C15.9039 8.08713 16.0149 8.08346 16.1256 8.08346C16.1296 8.08346 16.1346 8.08346 16.1406 8.08346C17.4046 8.08346 18.5546 8.57446 19.4086 9.37646L19.4056 9.37446C20.3536 10.2635 20.9466 11.5205 20.9556 12.9165V12.9185C20.9546 13.8915 20.6286 14.7885 20.0816 15.5065L20.0896 15.4965L15.9246 21.1635L12.2356 15.7885C11.6446 15.0015 11.2886 14.0085 11.2886 12.9325C11.2886 12.8285 11.2916 12.7265 11.2986 12.6245L11.2976 12.6385L11.2986 12.6365ZM16.0006 23.9175C10.4986 23.9175 7.11959 22.7535 7.11959 21.9185C7.11959 21.6115 7.64959 21.1295 9.13559 20.7005C10.7036 20.2785 12.5156 20.0095 14.3806 19.9555L14.4146 19.9545L15.3836 21.3665H12.8226C12.6676 21.3665 12.5416 21.4925 12.5416 21.6475C12.5416 21.8025 12.6676 21.9285 12.8226 21.9285H18.9306C19.0856 21.9285 19.2116 21.8025 19.2116 21.6475C19.2116 21.4925 19.0856 21.3665 18.9306 21.3665H16.4726L17.5126 19.9505C22.0646 20.1175 24.8806 21.0985 24.8806 21.9185C24.8806 22.7535 21.5026 23.9175 16.0006 23.9175Z" fill="#21A038"/>
<path d="M17.2848 13.0379C17.2848 13.6789 16.7658 14.1979 16.1248 14.1979C15.4838 14.1979 14.9648 13.6789 14.9648 13.0379C14.9648 12.3969 15.4838 11.8779 16.1248 11.8779C16.7658 11.8779 17.2848 12.3969 17.2848 13.0379Z" fill="#21A038"/>
<circle cx="16" cy="16" r="15.75" stroke="#21A038" stroke-width="0.5"/>
</g>
<defs>
<clipPath id="clip0_832_896">
<rect width="32" height="32" fill="white"/>
</clipPath>
</defs>
</svg>
