<svg width="50" height="50" viewBox="0 0 50 50" fill="none" xmlns="http://www.w3.org/2000/svg">
<path d="M31.4034 4.16699H18.6201C6.94505 4.16699 4.16797 6.94408 4.16797 18.5982V31.3816C4.16797 43.0545 6.92422 45.8337 18.5992 45.8337H31.3826C43.0555 45.8337 45.8346 43.0774 45.8346 31.4024V18.6191C45.8346 6.94408 43.0784 4.16699 31.4034 4.16699ZM37.8055 33.8962H34.7659C33.6159 33.8962 33.2701 32.9649 31.2076 30.9024C29.4076 29.167 28.6471 28.9503 28.1909 28.9503C27.5617 28.9503 27.3888 29.1232 27.3888 29.992V32.7253C27.3888 33.4649 27.1492 33.8982 25.218 33.8982C23.3437 33.7723 21.5261 33.2029 19.9151 32.2369C18.304 31.2708 16.9454 29.9359 15.9513 28.342C13.5912 25.4045 11.9491 21.9569 11.1555 18.2732C11.1555 17.817 11.3284 17.4045 12.1971 17.4045H15.2346C16.0159 17.4045 16.2971 17.7524 16.6034 18.5545C18.0784 22.8962 20.5951 26.6712 21.6159 26.6712C22.0076 26.6712 22.1784 26.4982 22.1784 25.5212V21.0503C22.0492 19.0107 20.9659 18.8378 20.9659 18.1003C20.9798 17.9058 21.0689 17.7244 21.2144 17.5944C21.3599 17.4645 21.5502 17.3964 21.7451 17.4045H26.5201C27.1721 17.4045 27.3888 17.7295 27.3888 18.5107V24.5441C27.3888 25.1962 27.6701 25.4128 27.8659 25.4128C28.2576 25.4128 28.5596 25.1962 29.2763 24.4795C30.8156 22.6023 32.0732 20.5109 33.0096 18.2712C33.1054 18.0021 33.2865 17.7718 33.5253 17.6153C33.7642 17.4588 34.0477 17.3848 34.3326 17.4045H37.3721C38.2826 17.4045 38.4763 17.8607 38.2826 18.5107C37.1773 20.9866 35.8098 23.3369 34.2034 25.5212C33.8763 26.0212 33.7451 26.2816 34.2034 26.867C34.5055 27.3232 35.5701 28.2128 36.2867 29.0587C37.3282 30.0975 38.193 31.2994 38.8471 32.617C39.1076 33.4628 38.6721 33.8962 37.8055 33.8962Z" fill="#999999"/>
</svg>
