<svg width="50" height="50" viewBox="0 0 50 50" fill="none" xmlns="http://www.w3.org/2000/svg">
<g clip-path="url(#clip0_834_903)">
<path d="M25.1594 6.24707H25.4375C28.0063 6.25645 41.0219 6.3502 44.5313 7.29395C45.5922 7.58197 46.5589 8.14339 47.3349 8.9221C48.1108 9.7008 48.6688 10.6695 48.9531 11.7314C49.2688 12.9189 49.4906 14.4908 49.6406 16.1127L49.6719 16.4377L49.7406 17.2502L49.7656 17.5752C49.9688 20.4314 49.9938 23.1064 49.9969 23.6908V23.9252C49.9938 24.5314 49.9656 27.3877 49.7406 30.3627L49.7156 30.6908L49.6875 31.0158C49.5313 32.8033 49.3 34.5783 48.9531 35.8846C48.6697 36.9469 48.112 37.9161 47.3359 38.6949C46.5598 39.4738 45.5926 40.0349 44.5313 40.3221C40.9063 41.2971 27.1281 41.3658 25.2188 41.3689H24.775C23.8094 41.3689 19.8156 41.3502 15.6281 41.2064L15.0969 41.1877L14.825 41.1752L14.2906 41.1533L13.7563 41.1314C10.2875 40.9783 6.98438 40.7314 5.4625 40.3189C4.40153 40.0321 3.43458 39.4714 2.65851 38.6931C1.88245 37.9149 1.32452 36.9463 1.04063 35.8846C0.69375 34.5814 0.4625 32.8033 0.30625 31.0158L0.28125 30.6877L0.25625 30.3627C0.102024 28.2452 0.0165621 26.1232 0 24.0002L0 23.6158C0.00625 22.9439 0.03125 20.6221 0.2 18.0596L0.221875 17.7377L0.23125 17.5752L0.25625 17.2502L0.325 16.4377L0.35625 16.1127C0.50625 14.4908 0.728125 12.9158 1.04375 11.7314C1.32717 10.6691 1.88488 9.69992 2.66098 8.92108C3.43708 8.14224 4.40428 7.58111 5.46563 7.29395C6.9875 6.8877 10.2906 6.6377 13.7594 6.48145L14.2906 6.45957L14.8281 6.44082L15.0969 6.43145L15.6313 6.40957C18.6053 6.31387 21.5806 6.26074 24.5563 6.2502H25.1594V6.24707ZM20 16.2783V31.3346L32.9906 23.8096L20 16.2783Z" fill="#999999"/>
</g>
<defs>
<clipPath id="clip0_834_903">
<rect width="50" height="50" fill="white"/>
</clipPath>
</defs>
</svg>
